<svg width="17" height="18" viewBox="0 0 17 18" fill="none" xmlns="http://www.w3.org/2000/svg">
<g id="Group 193">
<path id="Vector" fill-rule="evenodd" clip-rule="evenodd" d="M8.22264 1.65026C6.83488 1.59999 5.46459 1.98198 4.2901 2.74651C3.11561 3.51104 2.19131 4.62271 1.63749 5.93684C1.08367 7.25097 0.925968 8.70672 1.18492 10.1146C1.44387 11.5225 2.10747 12.8174 3.08937 13.8307C4.07127 14.844 5.32599 15.5288 6.69025 15.7961C8.05451 16.0633 9.46512 15.9006 10.7385 15.329C12.0119 14.7575 13.0891 13.8036 13.8299 12.5916C14.5708 11.3795 14.9409 9.96537 14.8922 8.53321C15.2572 8.41681 15.6051 8.25868 15.9307 8.06761C16.0732 9.7512 15.7104 11.4393 14.8915 12.9028C14.0726 14.3663 12.8372 15.5344 11.353 16.2486C9.86878 16.9628 8.20761 17.1884 6.59487 16.895C4.98213 16.6016 3.49591 15.8032 2.33786 14.6083C1.1798 13.4134 0.405994 11.8797 0.121422 10.2154C-0.163149 8.55115 0.0552953 6.8368 0.747116 5.30501C1.43894 3.77322 2.57064 2.49815 3.98866 1.65281C5.40669 0.80747 7.04238 0.432789 8.6738 0.579605C8.48672 0.919183 8.33547 1.27849 8.22264 1.65136" fill="#004368"/>
<path id="Vector_2" d="M13.2996 6.58865C15.0626 6.58865 16.4918 5.11373 16.4918 3.29433C16.4918 1.47492 15.0626 0 13.2996 0C11.5366 0 10.1074 1.47492 10.1074 3.29433C10.1074 5.11373 11.5366 6.58865 13.2996 6.58865Z" fill="#004368" fill-opacity="0.4"/>
</g>
</svg>
