<svg width="16" height="16" viewBox="0 0 16 16" fill="none" xmlns="http://www.w3.org/2000/svg">
<g id="qr-code-01">
<path id="Vector" d="M5.99565 1.33337C4.13107 1.37601 3.04199 1.55411 2.29787 2.29823C1.55375 3.04235 1.37564 4.13143 1.33301 5.99601M10.0037 1.33337C11.8683 1.37601 12.9573 1.55411 13.7015 2.29823C14.4456 3.04235 14.6237 4.13143 14.6663 5.99601M10.0037 14.6667C11.8683 14.6241 12.9573 14.446 13.7015 13.7018C14.4456 12.9577 14.6237 11.8686 14.6663 10.004M5.99565 14.6667C4.13107 14.6241 3.04199 14.446 2.29787 13.7018C1.55375 12.9577 1.37564 11.8686 1.33301 10.004" stroke="#004368" stroke-linecap="round" stroke-linejoin="round"/>
<path id="Vector_2" d="M11.333 4.66663H11.339" stroke="#004368" stroke-opacity="0.6" stroke-linecap="round" stroke-linejoin="round"/>
<path id="Vector_3" d="M8.66667 4V6C8.66667 7.25707 8.66667 7.8856 8.27613 8.27613C7.8856 8.66667 7.25707 8.66667 6 8.66667H4" stroke="#004368" stroke-opacity="0.6" stroke-linecap="round"/>
<path id="Vector_4" d="M4.19526 4.19526C4 4.39053 4 4.70479 4 5.33333C4 5.96187 4 6.27614 4.19526 6.47141M4.19526 4.19526C4.39053 4 4.70479 4 5.33333 4C5.96187 4 6.27614 4 6.47141 4.19526M4.19526 6.47141C4.39053 6.66667 4.70479 6.66667 5.33333 6.66667C5.96187 6.66667 6.27614 6.66667 6.47141 6.47141M6.47141 6.47141C6.66667 6.27614 6.66667 5.96187 6.66667 5.33333C6.66667 4.70479 6.66667 4.39053 6.47141 4.19526" stroke="#004368" stroke-opacity="0.6"/>
<path id="Vector_5" d="M11.333 10C11.6473 10 11.8044 10 11.9021 10.0976C11.9997 10.1953 11.9997 10.3524 11.9997 10.6667V11.3333C11.9997 11.6476 11.9997 11.8047 11.9021 11.9024C11.8044 12 11.6473 12 11.333 12H9.99967C9.68541 12 9.52827 12 9.43061 11.9024C9.33301 11.8047 9.33301 11.6476 9.33301 11.3333V10.6667C9.33301 10.3524 9.33301 10.1953 9.43061 10.0976C9.52827 10 9.68541 10 9.99967 10H11.333Z" stroke="#004368" stroke-opacity="0.6"/>
<path id="Vector_6" d="M4 12H7.33333" stroke="#004368" stroke-opacity="0.6" stroke-linecap="round"/>
<path id="Vector_7" d="M11.333 6.66663V7.99996" stroke="#004368" stroke-opacity="0.6" stroke-linecap="round"/>
</g>
</svg>
