<svg width="17" height="17" viewBox="0 0 17 17" fill="none" xmlns="http://www.w3.org/2000/svg">
<path id="Vector" d="M11.3945 11.4791C11.3945 10.6889 9.22271 10.0489 6.54371 10.0489M11.3945 11.4791C11.3945 12.2694 9.22271 12.9094 6.54371 12.9094C3.86471 12.9094 1.69296 12.2694 1.69296 11.4791M11.3945 11.4791V15.0098C11.3945 15.8243 9.22271 16.4851 6.54371 16.4851C3.86471 16.4851 1.69296 15.825 1.69296 15.0098V11.4791M11.3945 11.4791C14.0444 11.4791 16.2452 10.7733 16.2452 10.0489V2.89755M6.54371 10.0489C3.86471 10.0489 1.69296 10.6889 1.69296 11.4791M6.54371 10.0489C3.4822 10.0489 1 9.34305 1 8.61862V5.04295M6.54371 3.61268C3.4822 3.61268 1 4.25273 1 5.04295M1 5.04295C1 5.83317 3.4822 6.47322 6.54371 6.47322C6.54371 7.19765 8.79792 7.90348 11.4478 7.90348C14.097 7.90348 16.2452 7.19765 16.2452 6.47322M16.2452 2.89755C16.2452 2.10733 14.097 1.46729 11.4478 1.46729C8.79792 1.46729 6.65043 2.10733 6.65043 2.89755M16.2452 2.89755C16.2452 3.68777 14.097 4.32782 11.4478 4.32782C8.79861 4.32782 6.65043 3.68777 6.65043 2.89755M6.65043 2.89755V10.1676" stroke="#004368"/>
</svg>
