<svg width="17" height="17" viewBox="0 0 17 17" fill="none" xmlns="http://www.w3.org/2000/svg">
<g id="Group">
<path id="Vector" d="M1 10C1 7.17175 1 5.75725 1.879 4.879C2.75725 4 4.17175 4 7 4H10C12.8282 4 14.2427 4 15.121 4.879C16 5.75725 16 7.17175 16 10C16 12.8282 16 14.2427 15.121 15.121C14.2427 16 12.8282 16 10 16H7C4.17175 16 2.75725 16 1.879 15.121C1 14.2427 1 12.8282 1 10Z" stroke="#004368" stroke-width="1.5"/>
<path id="Vector_2" opacity="0.5" d="M11.5 4C11.5 2.5855 11.5 1.879 11.0605 1.4395C10.621 1 9.9145 1 8.5 1C7.0855 1 6.379 1 5.9395 1.4395C5.5 1.879 5.5 2.5855 5.5 4" stroke="#004368" stroke-width="1.5"/>
<path id="Vector_3" opacity="0.5" d="M8.5 12.4998C9.32875 12.4998 10 11.9402 10 11.2502C10 10.5602 9.32875 10 8.5 10C7.67125 10 7 9.4405 7 8.74975C7 8.05975 7.67125 7.50025 8.5 7.50025M8.5 12.4998C7.67125 12.4998 7 11.9402 7 11.2502M8.5 12.4998V13M8.5 7.50025V7M8.5 7.50025C9.32875 7.50025 10 8.05975 10 8.74975" stroke="#004368" stroke-linecap="round"/>
</g>
</svg>
