<svg width="17" height="17" viewBox="0 0 17 17" fill="none" xmlns="http://www.w3.org/2000/svg">
<g id="Group 188">
<path id="Vector" d="M10.0948 10.5886L7.28575 8.9048V4.04764H8.50004V8.29766L10.9934 9.77909C10.6615 10.0058 10.3539 10.281 10.0948 10.5886ZM8.96957 14.5067C8.67813 14.5472 8.3948 14.5715 8.09528 14.5715C4.51716 14.5715 1.61906 11.6734 1.61906 8.09528C1.61906 4.51716 4.51716 1.61906 8.09528 1.61906C11.6734 1.61906 14.5715 4.51716 14.5715 8.09528C14.5715 8.3948 14.5472 8.67813 14.5067 8.96957C15.0653 9.05052 15.5834 9.22861 16.061 9.48766C16.142 9.03433 16.1906 8.5729 16.1906 8.09528C16.1906 3.64287 12.5477 0 8.09528 0C3.64287 0 0 3.64287 0 8.09528C0 12.5477 3.61859 16.1906 8.09528 16.1906C8.5729 16.1906 9.03433 16.142 9.48766 16.061C9.22861 15.5834 9.05052 15.0653 8.96957 14.5067Z" fill="#004368"/>
<path id="Vector_2" d="M12.952 12.9524V10.5238H14.5711V12.9524H16.9997V14.5714H14.5711V17H12.952V14.5714H10.5234V12.9524H12.952Z" fill="#004368" fill-opacity="0.4"/>
</g>
</svg>
