<svg width="194" height="194" viewBox="0 0 194 194" fill="none" xmlns="http://www.w3.org/2000/svg">
<g id="qr-code">
<path id="Vector" d="M24.25 48.5C24.25 37.0685 24.25 31.3527 27.8013 27.8013C31.3527 24.25 37.0685 24.25 48.5 24.25C59.9315 24.25 65.6473 24.25 69.1987 27.8013C72.75 31.3527 72.75 37.0685 72.75 48.5C72.75 59.9315 72.75 65.6473 69.1987 69.1987C65.6473 72.75 59.9315 72.75 48.5 72.75C37.0685 72.75 31.3527 72.75 27.8013 69.1987C24.25 65.6473 24.25 59.9315 24.25 48.5Z" stroke="#1B1B1B" stroke-width="9"/>
<path id="Vector_2" d="M24.25 145.5C24.25 134.069 24.25 128.353 27.8013 124.801C31.3527 121.25 37.0685 121.25 48.5 121.25C59.9315 121.25 65.6473 121.25 69.1987 124.801C72.75 128.353 72.75 134.069 72.75 145.5C72.75 156.931 72.75 162.647 69.1987 166.199C65.6473 169.75 59.9315 169.75 48.5 169.75C37.0685 169.75 31.3527 169.75 27.8013 166.199C24.25 162.647 24.25 156.931 24.25 145.5Z" stroke="#1B1B1B" stroke-width="9"/>
<path id="Vector_3" d="M24.25 97H72.75" stroke="#1B1B1B" stroke-width="9" stroke-linecap="round" stroke-linejoin="round"/>
<path id="Vector_4" d="M97 24.25V64.6667" stroke="#1B1B1B" stroke-width="9" stroke-linecap="round" stroke-linejoin="round"/>
<path id="Vector_5" d="M121.25 48.5C121.25 37.0685 121.25 31.3527 124.801 27.8013C128.353 24.25 134.069 24.25 145.5 24.25C156.931 24.25 162.647 24.25 166.199 27.8013C169.75 31.3527 169.75 37.0685 169.75 48.5C169.75 59.9315 169.75 65.6473 166.199 69.1987C162.647 72.75 156.931 72.75 145.5 72.75C134.069 72.75 128.353 72.75 124.801 69.1987C121.25 65.6473 121.25 59.9315 121.25 48.5Z" stroke="#1B1B1B" stroke-width="9"/>
<path id="Vector_6" d="M169.75 97H121.25C109.819 97 104.103 97 100.551 100.551C97 104.103 97 109.819 97 121.25M97 143.634V166.02M121.25 121.25V133.375C121.25 145.067 127.585 145.5 137.417 145.5C141.881 145.5 145.5 149.119 145.5 153.583M129.333 169.75H121.25M145.5 121.25C156.931 121.25 162.647 121.25 166.199 124.807C169.75 128.363 169.75 134.087 169.75 145.535C169.75 156.983 169.75 162.707 166.199 166.264C163.607 168.859 159.862 169.561 153.583 169.75" stroke="#1B1B1B" stroke-width="9" stroke-linecap="round"/>
</g>
</svg>
