<svg width="19" height="18" viewBox="0 0 19 18" fill="none" xmlns="http://www.w3.org/2000/svg">
<path opacity="0.5" d="M4.40039 6.95044H7.80039" stroke="#004368" stroke-width="1.5" stroke-linecap="round" stroke-linejoin="round"/>
<path d="M17.0079 7.80042H14.7962C13.2789 7.80042 12.0498 8.94197 12.0498 10.3504C12.0498 11.7589 13.2798 12.9004 14.7953 12.9004H17.0079C17.0793 12.9004 17.1141 12.9004 17.1439 12.8987C17.6029 12.8707 17.9684 12.5315 17.9981 12.1057C17.9998 12.0785 17.9998 12.0453 17.9998 11.9799V8.72097C17.9998 8.65552 17.9998 8.62237 17.9981 8.59517C17.9675 8.16932 17.6029 7.83016 17.1439 7.80211C17.1141 7.80041 17.0793 7.80042 17.0079 7.80042Z" stroke="#004368" stroke-width="1.5"/>
<path d="M17.1203 7.80042C17.054 6.20922 16.8414 5.23342 16.1538 4.54662C15.1584 3.55041 13.5554 3.55042 10.35 3.55042H7.8C4.59465 3.55042 2.99155 3.55041 1.9962 4.54662C1 5.54197 1 7.14507 1 10.3504C1 13.5558 1 15.1589 1.9962 16.1542C2.99155 17.1504 4.59465 17.1504 7.8 17.1504H10.35C13.5554 17.1504 15.1584 17.1504 16.1538 16.1542C16.8414 15.4674 17.0548 14.4916 17.1203 12.9004" stroke="#004368" stroke-width="1.5"/>
<path opacity="0.5" d="M4.40039 3.55045L7.57514 1.445C8.02161 1.15459 8.54278 1 9.07539 1C9.608 1 10.1292 1.15459 10.5756 1.445L13.7504 3.55045" stroke="#004368" stroke-width="1.5" stroke-linecap="round"/>
<path opacity="0.5" d="M14.5928 10.3505H14.6004" stroke="#004368" stroke-width="2" stroke-linecap="round" stroke-linejoin="round"/>
</svg>
