<svg width="13" height="16" viewBox="0 0 13 16" fill="none" xmlns="http://www.w3.org/2000/svg">
<path id="Vector" d="M8.34624 14.6285C9.64468 12.6922 10.0555 10.9107 10.1658 9.7888C10.8102 10.0376 11.3357 10.34 11.7179 10.6724C12.212 11.1023 12.4353 11.5509 12.4353 11.9889V14.8261H8.21368L8.34624 14.6285ZM7.43744 14.4302L7.50179 14.8261H5.43353L5.49788 14.4302L6.15273 10.4004L6.17808 10.2444L6.10917 10.1022L5.66299 9.18129C5.92762 9.16257 6.19608 9.15157 6.46766 9.15157C6.73924 9.15157 7.0077 9.16257 7.27233 9.18129L6.82615 10.1022L6.75724 10.2444L6.78259 10.4004L7.43744 14.4302ZM4.58908 14.6285L4.72164 14.8261H0.5V11.9889C0.5 11.5519 0.72434 11.1032 1.22015 10.6727C1.60288 10.3404 2.12791 10.0383 2.76958 9.78962C2.88006 10.9116 3.29096 12.6926 4.58908 14.6285ZM6.46766 0.80835C7.96349 0.80835 9.20149 2.06297 9.20149 3.64564C9.20149 5.2283 7.96349 6.48292 6.46766 6.48292C4.97184 6.48292 3.73383 5.2283 3.73383 3.64564C3.73383 2.06297 4.97184 0.80835 6.46766 0.80835Z" stroke="#004368"/>
</svg>
