<svg width="20" height="20" viewBox="0 0 20 20" fill="none" xmlns="http://www.w3.org/2000/svg">
<g id="desk">
<path id="Vector" d="M2.5 6.66663H17.5V9.99996C17.5 11.9641 17.5 12.9462 16.8898 13.5565C16.2796 14.1666 15.2975 14.1666 13.3333 14.1666H6.66667C4.70248 14.1666 3.72039 14.1666 3.11019 13.5565C2.5 12.9462 2.5 11.9641 2.5 9.99996V6.66663Z" stroke="#004368" stroke-width="1.5" stroke-linecap="round"/>
<path id="Vector_2" d="M5.83301 5.00008C5.83301 3.42873 5.83301 2.64306 6.32117 2.15491C6.80932 1.66675 7.59499 1.66675 9.16634 1.66675H10.833C12.4043 1.66675 13.19 1.66675 13.6782 2.15491C14.1663 2.64306 14.1663 3.42873 14.1663 5.00008V6.66675H5.83301V5.00008Z" stroke="#004368" stroke-width="1.5" stroke-linecap="round"/>
<path id="Vector_3" d="M4.16699 14.1667V18.3334M15.8337 14.1667V18.3334" stroke="#004368" stroke-width="1.5" stroke-linecap="round"/>
<path id="Vector_4" d="M6.66699 14.1667V16.6667M13.3337 14.1667V16.6667" stroke="#004368" stroke-width="1.5" stroke-linecap="round"/>
<path id="Vector_5" d="M1.66699 6.66675H3.18214M16.8185 6.66675H18.3337" stroke="#004368" stroke-width="1.5" stroke-linecap="round"/>
</g>
</svg>
