<svg width="21" height="20" viewBox="0 0 21 20" fill="none" xmlns="http://www.w3.org/2000/svg">
<g id="activity-02">
<path id="Vector" d="M18.5833 3.74998C18.5833 4.67045 17.8372 5.41665 16.9167 5.41665C15.9962 5.41665 15.25 4.67045 15.25 3.74998C15.25 2.8295 15.9962 2.08331 16.9167 2.08331C17.8372 2.08331 18.5833 2.8295 18.5833 3.74998Z" stroke="#004368" stroke-width="1.5"/>
<path id="Vector_2" d="M17.7259 7.83816C17.75 8.5751 17.75 9.4266 17.75 10.4167C17.75 13.9522 17.75 15.72 16.6517 16.8184C15.5533 17.9167 13.7855 17.9167 10.25 17.9167C6.71447 17.9167 4.9467 17.9167 3.84835 16.8184C2.75 15.72 2.75 13.9522 2.75 10.4167C2.75 6.88115 2.75 5.11339 3.84835 4.01504C4.9467 2.91669 6.71447 2.91669 10.25 2.91669C11.2401 2.91669 12.0916 2.91669 12.8285 2.94081" stroke="#004368" stroke-width="1.5" stroke-linecap="round" stroke-linejoin="round"/>
<path id="Vector_3" d="M6.08398 12.0833L8.41139 9.75592C8.73683 9.4305 9.26448 9.4305 9.5899 9.75592L10.9114 11.0774C11.2368 11.4028 11.7645 11.4028 12.0899 11.0774L14.4173 8.75" stroke="#004368" stroke-width="1.5" stroke-linecap="round" stroke-linejoin="round"/>
</g>
</svg>
