<svg width="21" height="20" viewBox="0 0 21 20" fill="none" xmlns="http://www.w3.org/2000/svg">
<g id="activity-02">
<path id="Vector" d="M18.5833 3.75004C18.5833 4.67052 17.8372 5.41671 16.9167 5.41671C15.9962 5.41671 15.25 4.67052 15.25 3.75004C15.25 2.82957 15.9962 2.08337 16.9167 2.08337C17.8372 2.08337 18.5833 2.82957 18.5833 3.75004Z" stroke="#537B92" stroke-width="1.5"/>
<path id="Vector_2" d="M17.7259 7.8381C17.75 8.57504 17.75 9.42654 17.75 10.4166C17.75 13.9521 17.75 15.72 16.6517 16.8183C15.5533 17.9166 13.7855 17.9166 10.25 17.9166C6.71447 17.9166 4.9467 17.9166 3.84835 16.8183C2.75 15.72 2.75 13.9521 2.75 10.4166C2.75 6.88109 2.75 5.11333 3.84835 4.01498C4.9467 2.91663 6.71447 2.91663 10.25 2.91663C11.2401 2.91663 12.0916 2.91663 12.8285 2.94075" stroke="#537B92" stroke-width="1.5" stroke-linecap="round" stroke-linejoin="round"/>
<path id="Vector_3" d="M6.08398 12.0833L8.41139 9.75592C8.73683 9.4305 9.26448 9.4305 9.5899 9.75592L10.9114 11.0774C11.2368 11.4028 11.7645 11.4028 12.0899 11.0774L14.4173 8.75" stroke="#537B92" stroke-width="1.5" stroke-linecap="round" stroke-linejoin="round"/>
</g>
</svg>
