<svg width="19" height="18" viewBox="0 0 19 18" fill="none" xmlns="http://www.w3.org/2000/svg">
<g id="user-add-01">
<path id="Vector" d="M9.875 16.5H5.44315C4.28412 16.5 3.36223 15.936 2.5345 15.1474C0.840025 13.5331 3.6221 12.243 4.68318 11.6112C6.25878 10.673 8.1026 10.3289 9.875 10.5789C10.5181 10.6696 11.1445 10.8385 11.75 11.0857" stroke="#004368" stroke-width="1.5" stroke-linecap="round" stroke-linejoin="round"/>
<path id="Vector_2" d="M12.875 4.875C12.875 6.73896 11.364 8.25 9.5 8.25C7.63604 8.25 6.125 6.73896 6.125 4.875C6.125 3.01104 7.63604 1.5 9.5 1.5C11.364 1.5 12.875 3.01104 12.875 4.875Z" stroke="#004368" stroke-width="1.5"/>
<path id="Vector_3" d="M14.375 16.5V11.25M11.75 13.875H17" stroke="#004368" stroke-width="1.5" stroke-linecap="round"/>
</g>
</svg>
