<svg width="16" height="18" viewBox="0 0 16 18" fill="none" xmlns="http://www.w3.org/2000/svg">
<g id="elements">
<path id="Ellipse 1758" d="M11.3337 17.3332C10.4453 16.2959 9.27837 15.6665 8.00033 15.6665C6.72228 15.6665 5.55535 16.2959 4.66699 17.3332" stroke="#534FEB" stroke-linecap="round"/>
<path id="Ellipse 1759" d="M7.99967 9.83325C6.94291 9.83325 5.82558 10.016 4.94969 10.2606C4.29016 10.4448 3.75963 11.2845 3.84133 11.9662C3.8716 12.2188 4.0891 12.3333 4.31778 12.3333H11.6816C11.9103 12.3333 12.1277 12.2188 12.158 11.9662C12.2397 11.2845 11.7092 10.4448 11.0497 10.2606C10.1738 10.016 9.05644 9.83325 7.99967 9.83325Z" stroke="#534FEB" stroke-linecap="round"/>
<path id="Vector 6035" d="M15.5003 7.33325C14.5799 7.33325 13.8337 8.07944 13.8337 8.99992V9.83325C13.8337 10.7537 13.0875 11.4999 12.167 11.4999" stroke="#534FEB" stroke-linecap="round" stroke-linejoin="round"/>
<path id="Vector 6039" d="M0.499674 7.33325C1.42015 7.33325 2.16634 8.07944 2.16634 8.99992V9.83325C2.16634 10.7537 2.91253 11.4999 3.83301 11.4999" stroke="#534FEB" stroke-linecap="round" stroke-linejoin="round"/>
<path id="Vector 6036" d="M8 12.3333V17.3333" stroke="#534FEB" stroke-linecap="round" stroke-linejoin="round"/>
<path id="Vector 6037" d="M8.68279 7.33317H7.31656C6.1481 7.33317 5.56388 7.33317 5.14124 6.98018C4.7186 6.62719 4.57691 6.02089 4.29352 4.80829C3.84795 2.90174 3.62516 1.94846 4.093 1.30748C4.56085 0.666504 5.47942 0.666504 7.31656 0.666504H8.68279C10.5199 0.666504 11.4385 0.666504 11.9063 1.30748C12.3742 1.94846 12.1514 2.90174 11.7058 4.80829C11.4224 6.02089 11.2807 6.62719 10.8581 6.98018C10.4355 7.33317 9.85125 7.33317 8.68279 7.33317Z" stroke="#534FEB" stroke-linecap="round" stroke-linejoin="round"/>
<path id="Vector 6038" d="M8 7.33325V9.83325" stroke="#534FEB" stroke-linecap="round" stroke-linejoin="round"/>
</g>
</svg>
