<svg width="20" height="20" viewBox="0 0 20 20" fill="none" xmlns="http://www.w3.org/2000/svg">
<g id="folder-attachment">
<path id="Vector" d="M10.8337 17.5H10.0003C6.07195 17.5 4.10777 17.5 2.88738 16.2796C1.66699 15.0592 1.66699 13.095 1.66699 9.16667V6.62023C1.66699 5.1065 1.66699 4.34963 1.98393 3.78172C2.20984 3.37689 2.54388 3.04285 2.94871 2.81693C3.51663 2.5 4.27349 2.5 5.78722 2.5C6.75701 2.5 7.24191 2.5 7.66638 2.65917C8.63549 3.0226 9.03516 3.90298 9.47249 4.77761L10.0003 5.83333M6.66699 5.83333H13.9587C15.7142 5.83333 16.592 5.83333 17.2226 6.25466C17.4956 6.43706 17.7299 6.67143 17.9123 6.94441C18.3167 7.54952 18.333 8.38233 18.3337 10" stroke="#004368" stroke-opacity="0.6" stroke-width="1.5" stroke-linecap="round"/>
<path id="Vector_2" d="M17.5 12.8846V14.9359C17.5 16.352 16.3807 17.5 15 17.5C13.6192 17.5 12.5 16.352 12.5 14.9359V12.1154C12.5 11.4073 13.0597 10.8333 13.75 10.8333C14.4403 10.8333 15 11.4073 15 12.1154V14.9359" stroke="#004368" stroke-opacity="0.6" stroke-width="1.5" stroke-linecap="round" stroke-linejoin="round"/>
</g>
</svg>
