<svg width="18" height="18" viewBox="0 0 18 18" fill="none" xmlns="http://www.w3.org/2000/svg">
<g id="fi-rr-list-check" clip-path="url(#clip0_4695_127)">
<path id="Vector" d="M2.99961 4.50016C2.70393 4.50094 2.41102 4.44307 2.13784 4.32991C1.86467 4.21676 1.61664 4.05055 1.40811 3.84091L0.250111 2.81041C0.101524 2.67794 0.0116476 2.49186 0.000254802 2.29312C-0.011138 2.09438 0.0568856 1.89925 0.189361 1.75066C0.321837 1.60208 0.507913 1.5122 0.706654 1.50081C0.905396 1.48941 1.10052 1.55744 1.24911 1.68991L2.43786 2.75041C2.50591 2.82684 2.58888 2.88852 2.68167 2.93168C2.77445 2.97484 2.87509 2.99855 2.97738 3.00136C3.07967 3.00417 3.18146 2.98602 3.27647 2.94802C3.37148 2.91002 3.45772 2.85298 3.52986 2.78041L6.23286 0.207163C6.37821 0.0777658 6.56816 0.00992742 6.76259 0.0179764C6.95702 0.0260254 7.14071 0.109332 7.27487 0.250299C7.40902 0.391267 7.48313 0.578859 7.48154 0.773452C7.47996 0.968045 7.4028 1.1544 7.26636 1.29316L4.57461 3.85366C4.36744 4.05963 4.12171 4.22274 3.85146 4.33367C3.58121 4.4446 3.29174 4.50118 2.99961 4.50016V4.50016ZM17.9996 3.00016C17.9996 2.80125 17.9206 2.61049 17.7799 2.46983C17.6393 2.32918 17.4485 2.25016 17.2496 2.25016H9.74961C9.5507 2.25016 9.35993 2.32918 9.21928 2.46983C9.07863 2.61049 8.99961 2.80125 8.99961 3.00016C8.99961 3.19908 9.07863 3.38984 9.21928 3.53049C9.35993 3.67115 9.5507 3.75016 9.74961 3.75016H17.2496C17.4485 3.75016 17.6393 3.67115 17.7799 3.53049C17.9206 3.38984 17.9996 3.19908 17.9996 3.00016ZM4.57461 9.85366L7.26636 7.29316C7.34149 7.22628 7.4024 7.14496 7.44546 7.05406C7.48852 6.96315 7.51285 6.86452 7.51701 6.76401C7.52117 6.66351 7.50508 6.5632 7.46968 6.46905C7.43428 6.37489 7.3803 6.28882 7.31095 6.21596C7.24161 6.14309 7.15832 6.08492 7.06603 6.0449C6.97375 6.00488 6.87436 5.98384 6.77377 5.98302C6.67319 5.9822 6.57347 6.00162 6.48054 6.04012C6.38761 6.07863 6.30338 6.13544 6.23286 6.20716L3.53286 8.78041C3.39009 8.91694 3.20015 8.99313 3.00261 8.99313C2.80507 8.99313 2.61514 8.91694 2.47236 8.78041L1.27986 7.59166C1.13841 7.45504 0.948958 7.37945 0.75231 7.38116C0.555663 7.38287 0.367553 7.46174 0.228497 7.6008C0.0894412 7.73985 0.0105645 7.92796 0.00885568 8.12461C0.00714687 8.32126 0.0827427 8.51071 0.219361 8.65216L1.40811 9.84091C1.82787 10.2608 2.39655 10.4977 2.99024 10.5001C3.58392 10.5025 4.15449 10.2701 4.57761 9.85366H4.57461ZM17.9996 9.00016C17.9996 8.80125 17.9206 8.61049 17.7799 8.46983C17.6393 8.32918 17.4485 8.25016 17.2496 8.25016H9.74961C9.5507 8.25016 9.35993 8.32918 9.21928 8.46983C9.07863 8.61049 8.99961 8.80125 8.99961 9.00016C8.99961 9.19908 9.07863 9.38984 9.21928 9.53049C9.35993 9.67115 9.5507 9.75016 9.74961 9.75016H17.2496C17.4485 9.75016 17.6393 9.67115 17.7799 9.53049C17.9206 9.38984 17.9996 9.19908 17.9996 9.00016ZM4.57461 15.8537L7.26336 13.2932C7.33849 13.2263 7.3994 13.145 7.44246 13.0541C7.48552 12.9632 7.50985 12.8645 7.51401 12.764C7.51817 12.6635 7.50208 12.5632 7.46668 12.469C7.43128 12.3749 7.3773 12.2888 7.30796 12.216C7.23861 12.1431 7.15532 12.0849 7.06303 12.0449C6.97075 12.0049 6.87136 11.9838 6.77077 11.983C6.67019 11.9822 6.57047 12.0016 6.47754 12.0401C6.38461 12.0786 6.30038 12.1354 6.22986 12.2072L3.52986 14.7804C3.45772 14.853 3.37148 14.91 3.27647 14.948C3.18146 14.986 3.07967 15.0042 2.97738 15.0014C2.87509 14.9986 2.77445 14.9748 2.68167 14.9317C2.58888 14.8885 2.50591 14.8268 2.43786 14.7504L1.24911 13.6899C1.10052 13.5574 0.905396 13.4894 0.706654 13.5008C0.507913 13.5122 0.321837 13.6021 0.189361 13.7507C0.0568856 13.8993 -0.011138 14.0944 0.000254802 14.2931C0.0116476 14.4919 0.101524 14.6779 0.250111 14.8104L1.40811 15.8409C1.82787 16.2608 2.39655 16.4977 2.99024 16.5001C3.58392 16.5025 4.15449 16.2701 4.57761 15.8537H4.57461ZM17.9996 15.0002C17.9996 14.8013 17.9206 14.6105 17.7799 14.4698C17.6393 14.3292 17.4485 14.2502 17.2496 14.2502H9.74961C9.5507 14.2502 9.35993 14.3292 9.21928 14.4698C9.07863 14.6105 8.99961 14.8013 8.99961 15.0002C8.99961 15.1991 9.07863 15.3898 9.21928 15.5305C9.35993 15.6711 9.5507 15.7502 9.74961 15.7502H17.2496C17.4485 15.7502 17.6393 15.6711 17.7799 15.5305C17.9206 15.3898 17.9996 15.1991 17.9996 15.0002Z" fill="#004368"/>
</g>
<defs>
<clipPath id="clip0_4695_127">
<rect width="18" height="18" fill="white"/>
</clipPath>
</defs>
</svg>
