<svg width="20" height="20" viewBox="0 0 20 20" fill="none" xmlns="http://www.w3.org/2000/svg">
<g id="face-id">
<path id="Vector" d="M2.08301 6.82229C2.16972 5.07252 2.42915 3.98158 3.20521 3.20551C3.98127 2.42945 5.07222 2.17003 6.82198 2.08331M17.9163 6.82229C17.8296 5.07252 17.5702 3.98158 16.7942 3.20551C16.0181 2.42945 14.9271 2.17003 13.1773 2.08331M13.1773 17.9166C14.9271 17.8299 16.0181 17.5705 16.7942 16.7945C17.5702 16.0184 17.8296 14.9274 17.9163 13.1776M6.82197 17.9166C5.07222 17.8299 3.98127 17.5705 3.20521 16.7945C2.42915 16.0184 2.16972 14.9274 2.08301 13.1776" stroke="#537B92" stroke-width="1.5" stroke-linecap="round" stroke-linejoin="round"/>
<path id="Vector_2" d="M14.5837 14.1667L14.4152 13.4593C14.2759 12.8748 13.8327 12.4104 13.2554 12.2441L11.2503 11.6662L11.2501 10.4432C11.9973 9.93883 12.5001 8.99625 12.5001 7.91667C12.5001 6.30583 11.3807 5 10.0001 5C8.61933 5 7.50004 6.30583 7.50004 7.91667C7.50004 8.99625 8.00279 9.93883 8.75008 10.4432L8.75033 11.6662L6.7577 12.2495C6.19822 12.4133 5.76497 12.8575 5.61522 13.4209L5.41699 14.1667" stroke="#537B92" stroke-width="1.5" stroke-linecap="round" stroke-linejoin="round"/>
</g>
</svg>
