<svg width="11" height="19" viewBox="0 0 11 19" fill="none" xmlns="http://www.w3.org/2000/svg">
<path id="Vector" d="M10.0628 0.36767C9.95017 0.251124 9.81635 0.158657 9.66902 0.0955663C9.52169 0.0324754 9.36375 0 9.20424 0C9.04473 0 8.88678 0.0324754 8.73945 0.0955663C8.59212 0.158657 8.4583 0.251124 8.34566 0.36767L0.283715 8.68753C0.193778 8.78015 0.122426 8.89017 0.0737427 9.01129C0.0250591 9.1324 0 9.26224 0 9.39336C0 9.52449 0.0250591 9.65432 0.0737427 9.77544C0.122426 9.89656 0.193778 10.0066 0.283715 10.0992L8.34566 18.4191C8.82103 18.9096 9.58745 18.9096 10.0628 18.4191C10.5382 17.9285 10.5382 17.1375 10.0628 16.647L3.03894 9.38836L10.0725 2.12976C10.5382 1.64919 10.5382 0.848239 10.0628 0.36767Z" fill="#004368" fill-opacity="0.6"/>
</svg>
