<svg width="18" height="18" viewBox="0 0 18 18" fill="none" xmlns="http://www.w3.org/2000/svg">
<g id="elements">
<path id="Vector 4394" d="M9 11.5L9 12.75" stroke="#004368" stroke-linecap="round" stroke-linejoin="round"/>
<path id="Vector" d="M1.5 8.1665L1.6274 10.5526C1.76428 13.564 1.83272 15.0697 2.79904 15.9931C3.76536 16.9165 5.27263 16.9165 8.28719 16.9165H9.71281C12.7274 16.9165 14.2346 16.9165 15.201 15.9931C16.1673 15.0697 16.2357 13.564 16.3726 10.5526L16.5 8.1665" stroke="#004368" stroke-linecap="round" stroke-linejoin="round"/>
<path id="Ellipse 1564" d="M1.37233 7.70255C2.78841 10.3954 5.98234 11.5 8.99967 11.5C12.017 11.5 15.2109 10.3954 16.627 7.70255C17.303 6.41713 16.7911 4 15.1263 4H2.87301C1.2082 4 0.696364 6.41714 1.37233 7.70255Z" stroke="#004368"/>
<path id="Rectangle 2223" d="M12.3327 3.99992L12.2591 3.74237C11.8924 2.459 11.7091 1.81731 11.2726 1.45028C10.8361 1.08325 10.2564 1.08325 9.09682 1.08325H8.90188C7.74234 1.08325 7.16258 1.08325 6.7261 1.45028C6.28962 1.81731 6.10628 2.459 5.7396 3.74237L5.66602 3.99992" stroke="#004368"/>
</g>
</svg>
