<svg width="21" height="21" viewBox="0 0 21 21" fill="none" xmlns="http://www.w3.org/2000/svg">
<g id="teenyicons:face-id-solid" clip-path="url(#clip0_4175_2111)">
<path id="Vector" fill-rule="evenodd" clip-rule="evenodd" d="M3.83333 1.83333C3.3029 1.83333 2.79419 2.04405 2.41912 2.41912C2.04405 2.79419 1.83333 3.3029 1.83333 3.83333V7.16667H0.5V3.83333C0.5 2.94928 0.851189 2.10143 1.47631 1.47631C2.10143 0.851189 2.94928 0.5 3.83333 0.5L7.16667 0.5V1.83333H3.83333ZM17.1667 1.83333H13.8333V0.5H17.1667C18.0507 0.5 18.8986 0.851189 19.5237 1.47631C20.1488 2.10143 20.5 2.94928 20.5 3.83333V7.16667H19.1667V3.83333C19.1667 3.3029 18.956 2.79419 18.5809 2.41912C18.2058 2.04405 17.6971 1.83333 17.1667 1.83333ZM7.16667 8.5H5.83333V7.16667H7.16667V8.5ZM15.1667 8.5H13.8333V7.16667H15.1667V8.5ZM7.03333 12.1C7.43697 12.6382 7.96037 13.075 8.56207 13.3759C9.16378 13.6767 9.82727 13.8333 10.5 13.8333C11.1727 13.8333 11.8362 13.6767 12.4379 13.3759C13.0396 13.075 13.563 12.6382 13.9667 12.1L15.0333 12.9C12.7667 15.9227 8.23333 15.9227 5.96667 12.9L7.03333 12.1ZM0.5 17.1667V13.8333H1.83333V17.1667C1.83333 17.6971 2.04405 18.2058 2.41912 18.5809C2.79419 18.956 3.3029 19.1667 3.83333 19.1667H7.16667V20.5H3.83333C2.94928 20.5 2.10143 20.1488 1.47631 19.5237C0.851189 18.8986 0.5 18.0507 0.5 17.1667ZM20.5 13.8333V17.1667C20.5 18.0507 20.1488 18.8986 19.5237 19.5237C18.8986 20.1488 18.0507 20.5 17.1667 20.5H13.8333V19.1667H17.1667C17.6971 19.1667 18.2058 18.956 18.5809 18.5809C18.956 18.2058 19.1667 17.6971 19.1667 17.1667V13.8333H20.5Z" fill="white"/>
</g>
<defs>
<clipPath id="clip0_4175_2111">
<rect width="20" height="20" fill="white" transform="translate(0.5 0.5)"/>
</clipPath>
</defs>
</svg>
