<svg width="16" height="17" viewBox="0 0 16 17" fill="none" xmlns="http://www.w3.org/2000/svg">
<path d="M9.50095 10.4657L6.85714 8.88095V4.30952H8V8.30952L10.3467 9.70381C10.0343 9.91714 9.74476 10.1762 9.50095 10.4657ZM8.44191 14.1533C8.16762 14.1914 7.90095 14.2143 7.61905 14.2143C4.25143 14.2143 1.52381 11.4867 1.52381 8.11905C1.52381 4.75143 4.25143 2.02381 7.61905 2.02381C10.9867 2.02381 13.7143 4.75143 13.7143 8.11905C13.7143 8.40095 13.6914 8.66762 13.6533 8.94191C14.179 9.0181 14.6667 9.18571 15.1162 9.42952C15.1924 9.00286 15.2381 8.56857 15.2381 8.11905C15.2381 3.92857 11.8095 0.5 7.61905 0.5C3.42857 0.5 0 3.92857 0 8.11905C0 12.3095 3.40571 15.7381 7.61905 15.7381C8.06857 15.7381 8.50286 15.6924 8.92952 15.6162C8.68571 15.1667 8.5181 14.679 8.44191 14.1533ZM12.1905 10.4048V12.6905H9.90476V14.2143H12.1905V16.5H13.7143V14.2143H16V12.6905H13.7143V10.4048H12.1905Z" fill="#004368"/>
</svg>
