<svg width="19" height="18" viewBox="0 0 19 18" fill="none" xmlns="http://www.w3.org/2000/svg">
<g id="crowdfunding">
<path id="Vector" d="M9.5 6C10.7426 6 11.75 4.99264 11.75 3.75C11.75 2.50736 10.7426 1.5 9.5 1.5C8.25736 1.5 7.25 2.50736 7.25 3.75C7.25 4.99264 8.25736 6 9.5 6Z" stroke="#1B1B1B" stroke-width="1.5"/>
<path id="Vector_2" d="M9.5 16.5C10.3284 16.5 11 15.8284 11 15C11 14.1716 10.3284 13.5 9.5 13.5C8.67157 13.5 8 14.1716 8 15C8 15.8284 8.67157 16.5 9.5 16.5Z" stroke="#1B1B1B" stroke-width="1.5"/>
<path id="Vector_3" d="M15.5 16.5C16.3284 16.5 17 15.8284 17 15C17 14.1716 16.3284 13.5 15.5 13.5C14.6716 13.5 14 14.1716 14 15C14 15.8284 14.6716 16.5 15.5 16.5Z" stroke="#1B1B1B" stroke-width="1.5"/>
<path id="Vector_4" d="M3.5 16.5C4.32843 16.5 5 15.8284 5 15C5 14.1716 4.32843 13.5 3.5 13.5C2.67157 13.5 2 14.1716 2 15C2 15.8284 2.67157 16.5 3.5 16.5Z" stroke="#1B1B1B" stroke-width="1.5"/>
<path id="Vector_5" d="M15.5 11.25C15.5 10.4216 14.6605 9.75 13.625 9.75H5.375C4.33947 9.75 3.5 10.4216 3.5 11.25" stroke="#1B1B1B" stroke-width="1.5" stroke-linecap="round"/>
<path id="Vector_6" d="M9.5 8.25V11.25" stroke="#1B1B1B" stroke-width="1.5" stroke-linecap="round"/>
</g>
</svg>
