<svg width="18" height="18" viewBox="0 0 18 18" fill="none" xmlns="http://www.w3.org/2000/svg">
<g id="fi-rr-database" clip-path="url(#clip0_4690_125)">
<path id="Vector" d="M17.9997 8.62503C17.9979 8.11937 17.8819 7.62066 17.6603 7.16612C17.4388 6.71158 17.1174 6.31296 16.7202 6.00003C17.2697 5.56684 17.6703 4.97293 17.8661 4.30116C18.0619 3.62938 18.0431 2.91324 17.8124 2.25264C17.5817 1.59205 17.1506 1.01993 16.5791 0.616119C16.0077 0.212305 15.3244 -0.0030727 14.6247 3.31238e-05H3.37469C2.67497 -0.0030727 1.99173 0.212305 1.42028 0.616119C0.84883 1.01993 0.417675 1.59205 0.18696 2.25264C-0.0437538 2.91324 -0.0625205 3.62938 0.133278 4.30116C0.329077 4.97293 0.729676 5.56684 1.27919 6.00003C0.880599 6.31171 0.558221 6.71007 0.336506 7.16489C0.114792 7.61971 -0.00043537 8.11905 -0.00043537 8.62503C-0.00043537 9.13102 0.114792 9.63035 0.336506 10.0852C0.558221 10.54 0.880599 10.9384 1.27919 11.25C0.729676 11.6832 0.329077 12.2771 0.133278 12.9489C-0.0625205 13.6207 -0.0437538 14.3368 0.18696 14.9974C0.417675 15.658 0.84883 16.2301 1.42028 16.6339C1.99173 17.0378 2.67497 17.2531 3.37469 17.25H14.6247C15.3244 17.2531 16.0077 17.0378 16.5791 16.6339C17.1506 16.2301 17.5817 15.658 17.8124 14.9974C18.0431 14.3368 18.0619 13.6207 17.8661 12.9489C17.6703 12.2771 17.2697 11.6832 16.7202 11.25C17.1174 10.9371 17.4388 10.5385 17.6603 10.0839C17.8819 9.62941 17.9979 9.13069 17.9997 8.62503ZM1.49969 3.37503C1.49969 2.87775 1.69723 2.40084 2.04887 2.04921C2.4005 1.69758 2.87741 1.50003 3.37469 1.50003H3.74969V2.25003C3.74969 2.44895 3.82871 2.63971 3.96936 2.78036C4.11001 2.92102 4.30078 3.00003 4.49969 3.00003C4.6986 3.00003 4.88937 2.92102 5.03002 2.78036C5.17067 2.63971 5.24969 2.44895 5.24969 2.25003V1.50003H6.74969V2.25003C6.74969 2.44895 6.82871 2.63971 6.96936 2.78036C7.11001 2.92102 7.30078 3.00003 7.49969 3.00003C7.6986 3.00003 7.88937 2.92102 8.03002 2.78036C8.17067 2.63971 8.24969 2.44895 8.24969 2.25003V1.50003H14.6247C15.122 1.50003 15.5989 1.69758 15.9505 2.04921C16.3021 2.40084 16.4997 2.87775 16.4997 3.37503C16.4997 3.87231 16.3021 4.34923 15.9505 4.70086C15.5989 5.05249 15.122 5.25003 14.6247 5.25003H3.37469C2.87741 5.25003 2.4005 5.05249 2.04887 4.70086C1.69723 4.34923 1.49969 3.87231 1.49969 3.37503ZM16.4997 13.875C16.4997 14.3723 16.3021 14.8492 15.9505 15.2009C15.5989 15.5525 15.122 15.75 14.6247 15.75H3.37469C2.87741 15.75 2.4005 15.5525 2.04887 15.2009C1.69723 14.8492 1.49969 14.3723 1.49969 13.875C1.49969 13.3778 1.69723 12.9008 2.04887 12.5492C2.4005 12.1976 2.87741 12 3.37469 12H3.74969V12.75C3.74969 12.9489 3.82871 13.1397 3.96936 13.2804C4.11001 13.421 4.30078 13.5 4.49969 13.5C4.6986 13.5 4.88937 13.421 5.03002 13.2804C5.17067 13.1397 5.24969 12.9489 5.24969 12.75V12H6.74969V12.75C6.74969 12.9489 6.82871 13.1397 6.96936 13.2804C7.11001 13.421 7.30078 13.5 7.49969 13.5C7.6986 13.5 7.88937 13.421 8.03002 13.2804C8.17067 13.1397 8.24969 12.9489 8.24969 12.75V12H14.6247C15.122 12 15.5989 12.1976 15.9505 12.5492C16.3021 12.9008 16.4997 13.3778 16.4997 13.875ZM3.37469 10.5C2.87741 10.5 2.4005 10.3025 2.04887 9.95086C1.69723 9.59923 1.49969 9.12231 1.49969 8.62503C1.49969 8.12775 1.69723 7.65084 2.04887 7.29921C2.4005 6.94758 2.87741 6.75003 3.37469 6.75003H3.74969V7.50003C3.74969 7.69894 3.82871 7.88971 3.96936 8.03036C4.11001 8.17101 4.30078 8.25003 4.49969 8.25003C4.6986 8.25003 4.88937 8.17101 5.03002 8.03036C5.17067 7.88971 5.24969 7.69894 5.24969 7.50003V6.75003H6.74969V7.50003C6.74969 7.69894 6.82871 7.88971 6.96936 8.03036C7.11001 8.17101 7.30078 8.25003 7.49969 8.25003C7.6986 8.25003 7.88937 8.17101 8.03002 8.03036C8.17067 7.88971 8.24969 7.69894 8.24969 7.50003V6.75003H14.6247C15.122 6.75003 15.5989 6.94758 15.9505 7.29921C16.3021 7.65084 16.4997 8.12775 16.4997 8.62503C16.4997 9.12231 16.3021 9.59923 15.9505 9.95086C15.5989 10.3025 15.122 10.5 14.6247 10.5H3.37469Z" fill="#004368"/>
</g>
<defs>
<clipPath id="clip0_4690_125">
<rect width="18" height="18" fill="white"/>
</clipPath>
</defs>
</svg>
