<svg width="15" height="18" viewBox="0 0 15 18" fill="none" xmlns="http://www.w3.org/2000/svg">
<g id="Profile">
<path id="Combined-Shape" fill-rule="evenodd" clip-rule="evenodd" d="M14.4242 14.6691C14.4242 17.6549 10.3296 18 7.25059 18L7.03025 17.9998C5.06854 17.995 0.0751953 17.8712 0.0751953 14.651C0.0751953 11.7262 4.00518 11.3353 7.0608 11.3206L7.47092 11.3203C9.43251 11.3251 14.4242 11.4489 14.4242 14.6691ZM7.25059 12.6789C3.39068 12.6789 1.434 13.342 1.434 14.651C1.434 15.9718 3.39068 16.6412 7.25059 16.6412C11.1096 16.6412 13.0654 15.9781 13.0654 14.6691C13.0654 13.3484 11.1096 12.6789 7.25059 12.6789ZM7.25059 0C9.90298 0 12.0599 2.15778 12.0599 4.81017C12.0599 7.46256 9.90298 9.61943 7.25059 9.61943H7.2216C4.57465 9.61128 2.43046 7.45259 2.43949 4.80745C2.43949 2.15778 4.5973 0 7.25059 0ZM7.25059 1.29358C5.31112 1.29358 3.73308 2.8707 3.73308 4.81017C3.72676 6.7433 5.29301 8.31951 7.22432 8.32676L7.25059 8.97355V8.32676C9.18915 8.32676 10.7663 6.74873 10.7663 4.81017C10.7663 2.8707 9.18915 1.29358 7.25059 1.29358Z" fill="#004368"/>
</g>
</svg>
