<svg width="11" height="6" viewBox="0 0 11 6" fill="none" xmlns="http://www.w3.org/2000/svg">
<path id="Vector" d="M10.2915 4.30452C10.2477 4.3295 10.1994 4.34559 10.1494 4.35188C10.0994 4.35817 10.0486 4.35453 9.99998 4.34118C9.95137 4.32782 9.90586 4.30501 9.86607 4.27404C9.82628 4.24308 9.79299 4.20457 9.7681 4.16073L8.8574 2.5694C8.32795 2.92741 7.7439 3.1971 7.12802 3.36794L7.40938 5.05609C7.41768 5.10579 7.41611 5.15664 7.40475 5.20572C7.39339 5.25481 7.37246 5.30118 7.34317 5.34218C7.31388 5.38318 7.2768 5.418 7.23404 5.44466C7.19129 5.47132 7.1437 5.48929 7.09399 5.49754C7.07355 5.50089 7.05287 5.50265 7.03216 5.50281C6.94145 5.50268 6.85372 5.47039 6.78456 5.41168C6.71541 5.35297 6.66931 5.27164 6.65446 5.18215L6.37789 3.52468C5.79466 3.60588 5.20299 3.60588 4.61976 3.52468L4.34319 5.18215C4.32831 5.2718 4.28207 5.35326 4.21272 5.41199C4.14337 5.47072 4.05541 5.5029 3.96453 5.50281C3.94334 5.50273 3.92218 5.50096 3.90126 5.49754C3.85156 5.48929 3.80397 5.47132 3.76121 5.44466C3.71845 5.418 3.68137 5.38318 3.65208 5.34218C3.62279 5.30118 3.60187 5.25481 3.59051 5.20572C3.57915 5.15664 3.57757 5.10579 3.58587 5.05609L3.86867 3.36794C3.25304 3.19656 2.66931 2.92638 2.14026 2.56796L1.23243 4.16073C1.20725 4.2046 1.17368 4.24308 1.13363 4.27398C1.09358 4.30488 1.04783 4.32759 0.999009 4.34081C0.950183 4.35402 0.899231 4.3575 0.849063 4.35103C0.798895 4.34455 0.750493 4.32826 0.706621 4.30309C0.662748 4.27791 0.624265 4.24433 0.593367 4.20428C0.562469 4.16423 0.539763 4.11849 0.526544 4.06966C0.513325 4.02084 0.509852 3.96989 0.516324 3.91972C0.522796 3.86955 0.539086 3.82115 0.564264 3.77728L1.5229 2.09967C1.18618 1.80876 0.876553 1.4879 0.597816 1.14104C0.563055 1.10222 0.536569 1.05674 0.519973 1.00735C0.503377 0.957961 0.49702 0.905709 0.50129 0.853782C0.50556 0.801856 0.520367 0.751344 0.544808 0.705331C0.569249 0.659318 0.60281 0.618767 0.643444 0.586156C0.684078 0.553545 0.730931 0.529557 0.781144 0.515655C0.831357 0.501754 0.883876 0.498231 0.935496 0.505303C0.987115 0.512374 1.03675 0.529891 1.08138 0.556784C1.126 0.583677 1.16468 0.619381 1.19504 0.661719C1.99071 1.64623 3.38264 2.81864 5.49835 2.81864C7.61405 2.81864 9.00598 1.6448 9.80165 0.661719C9.83167 0.618515 9.87026 0.58195 9.91502 0.5543C9.95977 0.52665 10.0097 0.508506 10.0618 0.500997C10.1139 0.493487 10.1669 0.496773 10.2177 0.51065C10.2684 0.524528 10.3158 0.548699 10.3568 0.58166C10.3978 0.614622 10.4316 0.655669 10.456 0.702247C10.4805 0.748825 10.4951 0.799938 10.499 0.852406C10.5028 0.904874 10.4958 0.957575 10.4785 1.00723C10.4611 1.05688 10.4337 1.10243 10.3979 1.14104C10.1192 1.4879 9.80955 1.80876 9.47284 2.09967L10.4315 3.77728C10.4572 3.82101 10.474 3.86941 10.4809 3.91968C10.4878 3.96995 10.4846 4.02109 10.4716 4.07013C10.4586 4.11917 10.436 4.16514 10.4051 4.20538C10.3741 4.24561 10.3355 4.27931 10.2915 4.30452Z" fill="#9E9B9B"/>
</svg>
