<svg width="17" height="11" viewBox="0 0 17 11" fill="none" xmlns="http://www.w3.org/2000/svg">
<path id="Vector" d="M8.53075 9.50225C11.6077 9.50225 14.2692 7.79456 15.6384 5.27148C14.2692 2.74841 11.6077 1.04072 8.53075 1.04072C5.45383 1.04072 2.79229 2.74841 1.42306 5.27148C2.79229 7.79456 5.45383 9.50225 8.53075 9.50225ZM8.53075 0.271484C12.0384 0.271484 15.0692 2.30995 16.5 5.27148C15.0692 8.23302 12.0384 10.2715 8.53075 10.2715C5.02306 10.2715 1.99229 8.23302 0.561523 5.27148C1.99229 2.30995 5.02306 0.271484 8.53075 0.271484ZM8.53075 1.80995C10.4538 1.80995 11.9923 3.34841 11.9923 5.27148C11.9923 7.19456 10.4538 8.73302 8.53075 8.73302C6.60768 8.73302 5.06922 7.19456 5.06922 5.27148C5.06922 3.34841 6.60768 1.80995 8.53075 1.80995ZM8.53075 2.57918C7.81671 2.57918 7.13191 2.86283 6.62701 3.36774C6.1221 3.87264 5.83845 4.55744 5.83845 5.27148C5.83845 5.98553 6.1221 6.67033 6.62701 7.17523C7.13191 7.68014 7.81671 7.96379 8.53075 7.96379C9.2448 7.96379 9.9296 7.68014 10.4345 7.17523C10.9394 6.67033 11.2231 5.98553 11.2231 5.27148C11.2231 4.55744 10.9394 3.87264 10.4345 3.36774C9.9296 2.86283 9.2448 2.57918 8.53075 2.57918Z" fill="#AEAEAE"/>
</svg>
