<svg width="19" height="18" viewBox="0 0 19 18" fill="none" xmlns="http://www.w3.org/2000/svg">
<g id="home-01">
<path id="Vector" d="M11.75 12.75C11.1504 13.2168 10.3627 13.5 9.50002 13.5C8.63729 13.5 7.84965 13.2168 7.25 12.75" stroke="#004368" stroke-width="1.5" stroke-linecap="round"/>
<path id="Vector_2" d="M2.26354 9.91013C1.99878 8.18715 1.8664 7.32572 2.19213 6.56204C2.51785 5.79834 3.24052 5.27582 4.68585 4.23079L5.76574 3.45C7.56372 2.15 8.46269 1.5 9.50002 1.5C10.5373 1.5 11.4363 2.15 13.2343 3.45L14.3141 4.23079C15.7595 5.27582 16.4821 5.79834 16.8079 6.56204C17.1336 7.32572 17.0012 8.18715 16.7365 9.91013L16.5107 11.3793C16.1353 13.8217 15.9477 15.0429 15.0718 15.7715C14.1958 16.5 12.9152 16.5 10.3541 16.5H8.64591C6.08475 16.5 4.80418 16.5 3.92825 15.7715C3.05232 15.0429 2.86465 13.8217 2.48932 11.3793L2.26354 9.91013Z" stroke="#004368" stroke-width="1.5" stroke-linejoin="round"/>
</g>
</svg>
