<svg width="20" height="20" viewBox="0 0 20 20" fill="none" xmlns="http://www.w3.org/2000/svg">
<g id="home-08">
<path id="Vector" d="M5.90707 3.96877L5.07372 4.61923C3.80984 5.60576 3.1779 6.09902 2.83895 6.79452C2.5 7.49001 2.5 8.29346 2.5 9.90033V11.643C2.5 14.7969 2.5 16.3738 3.47631 17.3537C4.45262 18.3334 6.02397 18.3334 9.16667 18.3334H10.8333C13.976 18.3334 15.5474 18.3334 16.5237 17.3537C17.5 16.3738 17.5 14.7969 17.5 11.643V9.90033C17.5 8.29346 17.5 7.49001 17.1611 6.79452C16.8221 6.09902 16.1902 5.60576 14.9263 4.61923L14.0929 3.96877C12.1268 2.43409 11.1437 1.66675 10 1.66675C8.85633 1.66675 7.87322 2.43409 5.90707 3.96877Z" stroke="#1B1B1B" stroke-width="1.5" stroke-linejoin="round"/>
<path id="Vector_2" d="M12.5 13.75H14.1667V15.4167M12.5 13.75V15.4167H14.1667M12.5 13.75L14.1667 15.4167" stroke="#1B1B1B" stroke-width="1.5" stroke-linejoin="round"/>
</g>
</svg>
