<svg width="24" height="25" viewBox="0 0 24 25" fill="none" xmlns="http://www.w3.org/2000/svg">
<g id="icon-park-outline:people-plus">
<g id="Group">
<path id="Vector" d="M9.5 10.5C9.95963 10.5 10.4148 10.4095 10.8394 10.2336C11.264 10.0577 11.6499 9.79988 11.9749 9.47487C12.2999 9.14987 12.5577 8.76403 12.7336 8.33939C12.9095 7.91475 13 7.45963 13 7C13 6.54037 12.9095 6.08525 12.7336 5.66061C12.5577 5.23597 12.2999 4.85013 11.9749 4.52513C11.6499 4.20012 11.264 3.94231 10.8394 3.76642C10.4148 3.59053 9.95963 3.5 9.5 3.5C8.57174 3.5 7.6815 3.86875 7.02513 4.52513C6.36875 5.1815 6 6.07174 6 7C6 7.92826 6.36875 8.8185 7.02513 9.47487C7.6815 10.1313 8.57174 10.5 9.5 10.5Z" stroke="white" stroke-opacity="0.4" stroke-width="2" stroke-linejoin="round"/>
<path id="Vector_2" d="M18 15V21M15 18H21M13.5 14.5H9.4C7.16 14.5 6.04 14.5 5.184 14.936C4.43139 15.3195 3.81949 15.9314 3.436 16.684C3 17.54 3 18.66 3 20.9V21.5H13.5" stroke="white" stroke-opacity="0.4" stroke-width="2" stroke-linecap="round" stroke-linejoin="round"/>
</g>
</g>
</svg>
