<svg width="20" height="20" viewBox="0 0 20 20" fill="none" xmlns="http://www.w3.org/2000/svg">
<g id="office-chair">
<path id="Vector" d="M13.3337 18.3334C12.4453 17.2962 11.2784 16.6667 10.0003 16.6667C8.72224 16.6667 7.55535 17.2962 6.66699 18.3334" stroke="#534FEB" stroke-width="1.5" stroke-linecap="round"/>
<path id="Vector_2" d="M9.99968 10.8333C8.94293 10.8333 7.82558 11.016 6.94969 11.2606C6.29017 11.4448 5.75963 12.2845 5.84133 12.9663C5.87161 13.2188 6.0891 13.3333 6.31778 13.3333H13.6816C13.9103 13.3333 14.1278 13.2188 14.158 12.9663C14.2398 12.2845 13.7092 11.4448 13.0497 11.2606C12.1738 11.016 11.0564 10.8333 9.99968 10.8333Z" stroke="#534FEB" stroke-width="1.5" stroke-linecap="round"/>
<path id="Vector_3" d="M17.5003 8.33325C16.5798 8.33325 15.8337 9.07942 15.8337 9.99992V10.8333C15.8337 11.7538 15.0875 12.4999 14.167 12.4999" stroke="#534FEB" stroke-width="1.5" stroke-linecap="round" stroke-linejoin="round"/>
<path id="Vector_4" d="M2.5 8.33337C3.42048 8.33337 4.16667 9.07954 4.16667 10V10.8334C4.16667 11.7539 4.91286 12.5 5.83333 12.5" stroke="#534FEB" stroke-width="1.5" stroke-linecap="round" stroke-linejoin="round"/>
<path id="Vector_5" d="M10 13.3334V18.3334" stroke="#534FEB" stroke-width="1.5" stroke-linecap="round" stroke-linejoin="round"/>
<path id="Vector_6" d="M10.6828 8.33341H9.31659C8.1481 8.33341 7.56388 8.33341 7.14124 7.98042C6.71861 7.62743 6.57691 7.02113 6.29352 5.80853C5.84794 3.90198 5.62516 2.94871 6.093 2.30773C6.56085 1.66675 7.47942 1.66675 9.31659 1.66675H10.6828C12.5199 1.66675 13.4385 1.66675 13.9063 2.30773C14.3742 2.94871 14.1514 3.90198 13.7058 5.80853C13.4224 7.02113 13.2808 7.62743 12.8581 7.98042C12.4355 8.33341 11.8513 8.33341 10.6828 8.33341Z" stroke="#534FEB" stroke-width="1.5" stroke-linecap="round" stroke-linejoin="round"/>
<path id="Vector_7" d="M10 8.33337V10.8334" stroke="#534FEB" stroke-width="1.5" stroke-linecap="round" stroke-linejoin="round"/>
</g>
</svg>
