<svg width="20" height="20" viewBox="0 0 20 20" fill="none" xmlns="http://www.w3.org/2000/svg">
<g id="document-validation">
<path id="Vector" d="M12.4834 5.84631C12.4834 5.84631 12.9001 6.26298 13.3167 7.09631C13.3167 7.09631 14.6402 5.01298 15.8167 4.59631" stroke="#537B92" stroke-width="1.5" stroke-linecap="round" stroke-linejoin="round"/>
<path id="Vector_2" d="M8.32937 1.68444C6.24731 1.59629 4.63876 1.83614 4.63876 1.83614C3.62305 1.90877 1.67654 2.4782 1.67656 5.80378C1.67658 9.10108 1.65503 13.1661 1.67656 14.7866C1.67656 15.7767 2.28958 18.0861 4.41138 18.2098C6.99041 18.3603 11.6359 18.3923 13.7674 18.2098C14.3379 18.1777 16.2375 17.7297 16.4779 15.663C16.727 13.5219 16.6774 12.0339 16.6774 11.6797" stroke="#537B92" stroke-width="1.5" stroke-linecap="round" stroke-linejoin="round"/>
<path id="Vector_3" d="M18.3335 5.84629C18.3335 8.14748 16.4663 10.013 14.1629 10.013C11.8594 10.013 9.99219 8.14748 9.99219 5.84629C9.99219 3.54511 11.8594 1.67963 14.1629 1.67963C16.4663 1.67963 18.3335 3.54511 18.3335 5.84629Z" stroke="#537B92" stroke-width="1.5" stroke-linecap="round"/>
<path id="Vector_4" d="M5.81738 10.8463H9.15069" stroke="#537B92" stroke-width="1.5" stroke-linecap="round"/>
<path id="Vector_5" d="M5.81738 14.1797H12.484" stroke="#537B92" stroke-width="1.5" stroke-linecap="round"/>
</g>
</svg>
