<svg width="20" height="20" viewBox="0 0 20 20" fill="none" xmlns="http://www.w3.org/2000/svg">
<g id="document-validation">
<path id="Vector" d="M12.4834 5.84631C12.4834 5.84631 12.9001 6.26298 13.3167 7.09631C13.3167 7.09631 14.6402 5.01298 15.8167 4.59631" stroke="#537B92" stroke-width="1.5" stroke-linecap="round" stroke-linejoin="round"/>
<path id="Vector_2" d="M8.32937 1.6845C6.24731 1.59635 4.63876 1.8362 4.63876 1.8362C3.62305 1.90883 1.67654 2.47826 1.67656 5.80384C1.67658 9.10114 1.65503 13.1661 1.67656 14.7866C1.67656 15.7767 2.28958 18.0861 4.41138 18.2099C6.99041 18.3604 11.6359 18.3924 13.7674 18.2099C14.3379 18.1777 16.2375 17.7298 16.4779 15.6631C16.727 13.522 16.6774 12.034 16.6774 11.6798" stroke="#537B92" stroke-width="1.5" stroke-linecap="round" stroke-linejoin="round"/>
<path id="Vector_3" d="M18.3335 5.84635C18.3335 8.14754 16.4663 10.0131 14.1629 10.0131C11.8594 10.0131 9.99219 8.14754 9.99219 5.84635C9.99219 3.54517 11.8594 1.67969 14.1629 1.67969C16.4663 1.67969 18.3335 3.54517 18.3335 5.84635Z" stroke="#537B92" stroke-width="1.5" stroke-linecap="round"/>
<path id="Vector_4" d="M5.81738 10.8463H9.15069" stroke="#537B92" stroke-width="1.5" stroke-linecap="round"/>
<path id="Vector_5" d="M5.81738 14.1797H12.484" stroke="#537B92" stroke-width="1.5" stroke-linecap="round"/>
</g>
</svg>
