<svg width="24" height="24" viewBox="0 0 24 24" fill="none" xmlns="http://www.w3.org/2000/svg">
<g id="task-edit-02">
<path id="Vector" d="M7.01465 16.0029H11.0147M7.01465 11.0053H15.0147" stroke="#004368" stroke-width="1.5" stroke-linecap="round"/>
<path id="Vector_2" d="M10.0146 21.9999H11.0146" stroke="#004368" stroke-width="1.5" stroke-linecap="round"/>
<path id="Vector_3" d="M7.51071 21.9999C6.33909 21.9749 5.53909 21.9 4.76409 21.6751C3.71479 21.4002 2.94893 20.4757 2.72409 19.1763C2.43909 17.9519 2.53909 14.9284 2.51404 11.3302C2.51611 8.53874 2.38908 5.85787 2.83908 4.33362C3.11408 3.83386 3.33908 2.00976 7.06409 2.03475C7.68909 2.00976 14.3141 1.95978 15.3641 2.05973C18.8641 2.1347 19.2141 3.93381 19.4141 5.63298C19.5409 6.88236 19.5141 8.88138 19.5141 11.0053M7.01409 2.00976C7.31409 3.63396 7.28909 4.68344 8.38909 4.93332C8.86409 5.00828 9.94938 5.00628 11.1141 5.00828C12.1537 5.01007 13.2141 5.01945 13.6891 4.90833C14.8641 4.63347 14.7391 3.18418 15.0391 2.00976" stroke="#004368" stroke-width="1.5" stroke-linecap="round"/>
<path id="Vector_4" d="M18.279 14.3787C16.9049 15.778 14.2567 18.2768 14.2567 18.4517C14.0431 18.7483 13.8569 19.3512 13.732 20.2008C13.5751 20.9884 13.3872 21.6751 13.6071 21.875C13.827 22.0749 14.6549 21.9064 15.5308 21.7251C16.2303 21.6501 16.8799 21.4002 17.2047 21.1504C17.6794 20.7304 20.9022 17.4772 21.277 17.0524C21.5518 16.6776 21.5768 15.9779 21.3369 15.5531C21.202 15.2533 20.3526 14.4536 20.0778 14.2288C19.5781 13.9289 18.8786 13.8789 18.279 14.3787Z" stroke="#004368" stroke-width="1.5" stroke-linecap="round"/>
</g>
</svg>
