<svg width="19" height="18" viewBox="0 0 19 18" fill="none" xmlns="http://www.w3.org/2000/svg">
<g id="task-edit-02">
<path id="Vector" d="M5.76074 12.0022H8.76076M5.76074 8.25397H11.7608" stroke="#1B1B1B" stroke-width="1.5" stroke-linecap="round"/>
<path id="Vector_2" d="M8.01074 16.4999H8.76074" stroke="#1B1B1B" stroke-width="1.5" stroke-linecap="round"/>
<path id="Vector_3" d="M6.13279 16.4999C5.25407 16.4812 4.65407 16.425 4.07282 16.2563C3.28585 16.0501 2.71145 15.3568 2.54282 14.3822C2.32907 13.4639 2.40407 11.1963 2.38529 8.49764C2.38684 6.40404 2.29157 4.39339 2.62907 3.2502C2.83532 2.87538 3.00407 1.50731 5.79782 1.52605C6.26657 1.50731 11.2353 1.46982 12.0228 1.54478C14.6478 1.60101 14.9103 2.95034 15.0603 4.22472C15.1554 5.16175 15.1353 6.66102 15.1353 8.25396M5.76032 1.50731C5.98532 2.72546 5.96657 3.51257 6.79157 3.69998C7.14782 3.7562 7.96179 3.75469 8.83531 3.75619C9.61501 3.75754 10.4103 3.76457 10.7666 3.68123C11.6478 3.47509 11.5541 2.38812 11.7791 1.50731" stroke="#1B1B1B" stroke-width="1.5" stroke-linecap="round"/>
<path id="Vector_4" d="M14.209 10.784C13.1784 11.8335 11.1923 13.7076 11.1923 13.8388C11.0321 14.0612 10.8924 14.5134 10.7987 15.1506C10.6811 15.7413 10.5401 16.2563 10.7051 16.4063C10.87 16.5562 11.4909 16.4298 12.1478 16.2938C12.6725 16.2376 13.1597 16.0502 13.4033 15.8628C13.7593 15.5478 16.1764 13.1079 16.4575 12.7893C16.6636 12.5082 16.6823 11.9834 16.5024 11.6648C16.4012 11.44 15.7642 10.8402 15.5581 10.6716C15.1833 10.4467 14.6587 10.4092 14.209 10.784Z" stroke="#1B1B1B" stroke-width="1.5" stroke-linecap="round"/>
</g>
</svg>
