<svg width="19" height="18" viewBox="0 0 19 18" fill="none" xmlns="http://www.w3.org/2000/svg">
<g id="settings-05">
<path id="Vector" d="M2.375 9C2.375 5.64124 2.375 3.96187 3.41843 2.91843C4.46187 1.875 6.14124 1.875 9.5 1.875C12.8587 1.875 14.5381 1.875 15.5816 2.91843C16.625 3.96187 16.625 5.64124 16.625 9C16.625 12.3587 16.625 14.0381 15.5816 15.0816C14.5381 16.125 12.8587 16.125 9.5 16.125C6.14124 16.125 4.46187 16.125 3.41843 15.0816C2.375 14.0381 2.375 12.3587 2.375 9Z" stroke="#004368" stroke-width="1.5" stroke-linejoin="round"/>
<path id="Vector_2" d="M6.875 7.5C6.25368 7.5 5.75 6.99632 5.75 6.375C5.75 5.75368 6.25368 5.25 6.875 5.25C7.49632 5.25 8 5.75368 8 6.375C8 6.99632 7.49632 7.5 6.875 7.5Z" stroke="#004368" stroke-width="1.5"/>
<path id="Vector_3" d="M12.125 12.75C12.7463 12.75 13.25 12.2463 13.25 11.625C13.25 11.0037 12.7463 10.5 12.125 10.5C11.5037 10.5 11 11.0037 11 11.625C11 12.2463 11.5037 12.75 12.125 12.75Z" stroke="#004368" stroke-width="1.5"/>
<path id="Vector_4" d="M8 6.375H13.25" stroke="#004368" stroke-width="1.5" stroke-linecap="round"/>
<path id="Vector_5" d="M11 11.625H5.75" stroke="#004368" stroke-width="1.5" stroke-linecap="round"/>
</g>
</svg>
