<svg width="16" height="16" viewBox="0 0 16 16" fill="none" xmlns="http://www.w3.org/2000/svg">
<g id="message-edit-02">
<path id="Vector" d="M14.6107 6.99999C14.6231 7.10372 14.6327 7.20839 14.6396 7.31379C14.6753 7.86725 14.6753 8.44045 14.6396 8.99392C14.4568 11.8221 12.2354 14.075 9.44676 14.2603C8.49536 14.3236 7.50209 14.3235 6.55261 14.2603C6.22565 14.2386 5.86927 14.1606 5.56235 14.0342C5.22085 13.8935 5.05007 13.8232 4.9633 13.8339C4.87652 13.8445 4.75061 13.9374 4.49879 14.1231C4.05479 14.4505 3.49545 14.6857 2.66596 14.6655C2.24651 14.6553 2.03679 14.6501 1.9429 14.4901C1.84901 14.33 1.96595 14.1084 2.19981 13.6652C2.52417 13.0505 2.72968 12.3469 2.41828 11.7831C1.88196 10.9777 1.42641 10.024 1.35983 8.99392C1.32407 8.44045 1.32407 7.86725 1.35983 7.31379C1.54261 4.48559 3.76393 2.23275 6.55261 2.04738C7.35423 1.99409 8.18716 1.98571 8.99969 2.02245" stroke="#004368" stroke-linecap="round" stroke-linejoin="round"/>
<path id="Vector_2" d="M7.99669 8.33301H8.00263M5.33301 8.33301H5.33899" stroke="#004368" stroke-linecap="round" stroke-linejoin="round"/>
<path id="Vector_3" d="M13.9122 1.6259L14.3738 2.08748C14.7644 2.478 14.7644 3.11116 14.3738 3.50169L11.9556 5.96546C11.7653 6.1557 11.522 6.28394 11.2576 6.33333L9.75875 6.65869C9.52215 6.71006 9.31142 6.49995 9.36209 6.26317L9.68109 4.77296C9.73049 4.5085 9.85875 4.26516 10.049 4.07493L12.498 1.6259C12.8886 1.23538 13.5217 1.23538 13.9122 1.6259Z" stroke="#004368" stroke-linecap="round" stroke-linejoin="round"/>
</g>
</svg>
