<svg width="20" height="20" viewBox="0 0 20 20" fill="none" xmlns="http://www.w3.org/2000/svg">
<g id="notification-03">
<path id="Vector" d="M2.10794 11.9951C1.93073 13.1227 2.72301 13.9052 3.69305 14.2952C7.41202 15.7906 12.5873 15.7906 16.3063 14.2952C17.2763 13.9052 18.0686 13.1227 17.8914 11.9951C17.7825 11.3022 17.244 10.7252 16.845 10.1617C16.3224 9.41466 16.2705 8.59983 16.2704 7.73292C16.2704 4.38267 13.4629 1.66675 9.99968 1.66675C6.53645 1.66675 3.72895 4.38267 3.72895 7.73292C3.72887 8.59983 3.67694 9.41466 3.15435 10.1617C2.75538 10.7252 2.21685 11.3022 2.10794 11.9951Z" stroke="#004368" stroke-width="1.5" stroke-linecap="round" stroke-linejoin="round"/>
<path id="Vector_2" d="M7.5 17.5C8.16344 18.0183 9.03958 18.3333 10 18.3333C10.9604 18.3333 11.8366 18.0183 12.5 17.5" stroke="#004368" stroke-width="1.5" stroke-linecap="round" stroke-linejoin="round"/>
</g>
</svg>
