<svg width="20" height="20" viewBox="0 0 20 20" fill="none" xmlns="http://www.w3.org/2000/svg">
<g id="office">
<path id="Vector" d="M11.667 18.3334V6.66675C11.667 4.30972 11.667 3.13121 10.9347 2.39898C10.2025 1.66675 9.02399 1.66675 6.66699 1.66675C4.30997 1.66675 3.13146 1.66675 2.39923 2.39898C1.66699 3.13121 1.66699 4.30972 1.66699 6.66675V13.3334C1.66699 15.6904 1.66699 16.8689 2.39923 17.6012C3.13146 18.3334 4.30997 18.3334 6.66699 18.3334H11.667Z" stroke="#1B1B1B" stroke-width="1.5" stroke-linecap="round"/>
<path id="Vector_2" d="M5.41634 9.16659H4.58301M8.74967 9.16659H7.91634M5.41634 5.83325H4.58301M5.41634 12.4999H4.58301M8.74967 5.83325H7.91634M8.74967 12.4999H7.91634" stroke="#1B1B1B" stroke-width="1.5" stroke-linecap="round"/>
<path id="Vector_3" d="M15.4163 12.5001H14.583M15.4163 9.16675H14.583" stroke="#1B1B1B" stroke-width="1.5" stroke-linecap="round"/>
<path id="Vector_4" d="M15.0003 6.66675H11.667V18.3334H15.0003C16.5717 18.3334 17.3573 18.3334 17.8455 17.8452C18.3337 17.3571 18.3337 16.5714 18.3337 15.0001V10.0001C18.3337 8.42875 18.3337 7.64306 17.8455 7.15491C17.3573 6.66675 16.5717 6.66675 15.0003 6.66675Z" stroke="#1B1B1B" stroke-width="1.5" stroke-linecap="round"/>
</g>
</svg>
