<svg width="20" height="20" viewBox="0 0 20 20" fill="none" xmlns="http://www.w3.org/2000/svg">
<g id="time-quarter-pass">
<path id="Vector" d="M6.98002 2.5C6.80176 2.56661 6.62645 2.63927 6.45433 2.71772M17.265 13.5843C17.3501 13.3999 17.4287 13.2118 17.5002 13.0204M15.4159 16.1373C15.559 16.0037 15.6973 15.8651 15.8305 15.7217M12.7243 17.8103C12.8861 17.7493 13.0453 17.6833 13.202 17.6126M10.1302 18.3283C9.93782 18.3349 9.74407 18.3349 9.55157 18.3283M6.48966 17.617C6.64033 17.6848 6.79343 17.7482 6.94878 17.8069M3.89403 15.7673C4.00793 15.8881 4.12548 16.0053 4.24648 16.119M2.19415 13.0538C2.25655 13.2185 2.32413 13.3808 2.39667 13.5403M1.67104 10.4211C1.66563 10.2477 1.66565 10.0732 1.67104 9.8995M2.18811 7.28095C2.24941 7.11804 2.31577 6.95761 2.38698 6.79983M3.88025 4.56603C4.0008 4.43762 4.12544 4.31311 4.25398 4.1927" stroke="#FF9500" stroke-width="1.5" stroke-linecap="round" stroke-linejoin="round"/>
<path id="Vector_2" d="M11.25 10C11.25 10.6903 10.6903 11.25 10 11.25C9.30967 11.25 8.75 10.6903 8.75 10C8.75 9.30967 9.30967 8.75 10 8.75M11.25 10C11.25 9.30967 10.6903 8.75 10 8.75M11.25 10H13.3333M10 8.75V5" stroke="#FF9500" stroke-width="1.5" stroke-linecap="round"/>
<path id="Vector_3" d="M18.3333 9.99996C18.3333 5.39758 14.6023 1.66663 10 1.66663" stroke="#FF9500" stroke-width="1.5" stroke-linecap="round"/>
</g>
</svg>
