<svg width="21" height="25" viewBox="0 0 21 25" fill="none" xmlns="http://www.w3.org/2000/svg">
<g id="Profile">
<path id="Combined-Shape" fill-rule="evenodd" clip-rule="evenodd" d="M20.066 20.0588C20.066 24.0398 14.6066 24.5 10.5012 24.5L10.2074 24.4997C7.59181 24.4934 0.934021 24.3283 0.934021 20.0347C0.934021 16.1349 6.174 15.6137 10.2482 15.5941L10.795 15.5937C13.4104 15.6001 20.066 15.7652 20.066 20.0588ZM10.5012 17.4052C5.35467 17.4052 2.74576 18.2894 2.74576 20.0347C2.74576 21.7957 5.35467 22.6883 10.5012 22.6883C15.6466 22.6883 18.2543 21.8041 18.2543 20.0588C18.2543 18.2978 15.6466 17.4052 10.5012 17.4052ZM10.5012 0.5C14.0377 0.5 16.9136 3.37704 16.9136 6.91356C16.9136 10.4501 14.0377 13.3259 10.5012 13.3259H10.4626C6.9333 13.315 4.07437 10.4368 4.08641 6.90994C4.08641 3.37704 6.96349 0.5 10.5012 0.5ZM10.5012 2.22478C7.91526 2.22478 5.8112 4.3276 5.8112 6.91356C5.80277 9.49106 7.8911 11.5927 10.4662 11.6023L10.5012 12.4647V11.6023C13.086 11.6023 15.1888 9.49831 15.1888 6.91356C15.1888 4.3276 13.086 2.22478 10.5012 2.22478Z" fill="white" fill-opacity="0.4"/>
</g>
</svg>
