<svg width="18" height="18" viewBox="0 0 18 18" fill="none" xmlns="http://www.w3.org/2000/svg">
<path d="M17.1 8.10131C16.8613 8.10131 16.6324 8.19613 16.4636 8.36491C16.2948 8.53369 16.2 8.76261 16.2 9.00131C16.2107 10.687 15.6332 12.3237 14.5671 13.6295C13.5009 14.9353 12.0128 15.8284 10.359 16.155C8.70514 16.4817 6.98919 16.2214 5.50665 15.419C4.0241 14.6166 2.86776 13.3223 2.23679 11.7591C1.60582 10.1959 1.53971 8.46159 2.04986 6.85488C2.56 5.24816 3.61446 3.86963 5.03163 2.95672C6.44879 2.0438 8.13995 1.65364 9.81382 1.85344C11.4877 2.05323 13.0395 2.83048 14.202 4.05131H12.042C11.8033 4.05131 11.5744 4.14613 11.4056 4.31492C11.2368 4.4837 11.142 4.71262 11.142 4.95131C11.142 5.19001 11.2368 5.41892 11.4056 5.58771C11.5744 5.75649 11.8033 5.85131 12.042 5.85131H16.119C16.3577 5.85131 16.5866 5.75649 16.7554 5.58771C16.9242 5.41892 17.019 5.19001 17.019 4.95131V0.901317C17.019 0.662622 16.9242 0.433704 16.7554 0.264922C16.5866 0.0961391 16.3577 0.00131809 16.119 0.00131809C15.8803 0.00131809 15.6514 0.0961391 15.4826 0.264922C15.3138 0.433704 15.219 0.662622 15.219 0.901317V2.49431C13.7202 1.06157 11.7727 0.190275 9.7056 0.0277142C7.63855 -0.134847 5.57876 0.421298 3.87443 1.60214C2.17009 2.78298 0.925749 4.51608 0.351748 6.50848C-0.222254 8.50088 -0.0907082 10.6304 0.724149 12.537C1.53901 14.4436 2.98719 16.0104 4.8239 16.9725C6.66062 17.9346 8.77319 18.233 10.8045 17.8172C12.8359 17.4015 14.6613 16.2971 15.9724 14.6908C17.2835 13.0845 17.9997 11.0747 18 9.00131C18 8.76261 17.9052 8.53369 17.7364 8.36491C17.5676 8.19613 17.3387 8.10131 17.1 8.10131Z" fill="#004368"/>
</svg>
