<svg width="19" height="18" viewBox="0 0 19 18" fill="none" xmlns="http://www.w3.org/2000/svg">
<g id="apple-reminder">
<path id="Vector" d="M2.375 9C2.375 5.64124 2.375 3.96187 3.41843 2.91843C4.46187 1.875 6.14124 1.875 9.5 1.875C12.8587 1.875 14.5381 1.875 15.5816 2.91843C16.625 3.96187 16.625 5.64124 16.625 9C16.625 12.3587 16.625 14.0381 15.5816 15.0816C14.5381 16.125 12.8587 16.125 9.5 16.125C6.14124 16.125 4.46187 16.125 3.41843 15.0816C2.375 14.0381 2.375 12.3587 2.375 9Z" stroke="#1B1B1B" stroke-width="1.5" stroke-linejoin="round"/>
<path id="Vector_2" d="M8.75 5.625H13.25M6.5 5.625C6.5 5.83211 6.33211 6 6.125 6C5.91789 6 5.75 5.83211 5.75 5.625C5.75 5.41789 5.91789 5.25 6.125 5.25C6.33211 5.25 6.5 5.41789 6.5 5.625Z" stroke="#1B1B1B" stroke-width="1.5" stroke-linecap="round" stroke-linejoin="round"/>
<path id="Vector_3" d="M8.75 9H13.25M6.5 9C6.5 9.20708 6.33211 9.375 6.125 9.375C5.91789 9.375 5.75 9.20708 5.75 9C5.75 8.79292 5.91789 8.625 6.125 8.625C6.33211 8.625 6.5 8.79292 6.5 9Z" stroke="#1B1B1B" stroke-width="1.5" stroke-linecap="round" stroke-linejoin="round"/>
<path id="Vector_4" d="M8.75 12.375H13.25M6.5 12.375C6.5 12.5821 6.33211 12.75 6.125 12.75C5.91789 12.75 5.75 12.5821 5.75 12.375C5.75 12.1679 5.91789 12 6.125 12C6.33211 12 6.5 12.1679 6.5 12.375Z" stroke="#1B1B1B" stroke-width="1.5" stroke-linecap="round" stroke-linejoin="round"/>
</g>
</svg>
