<svg width="18" height="18" viewBox="0 0 18 18" fill="none" xmlns="http://www.w3.org/2000/svg">
<g id="elements">
<path id="Vector" d="M8.99984 12.3335H9.00732" stroke="#534FEB" stroke-linecap="round" stroke-linejoin="round"/>
<path id="Vector 2613" d="M9 9.8335L9 5.66683" stroke="#534FEB" stroke-linecap="round" stroke-linejoin="round"/>
<path id="Vector_2" d="M12.5906 2.65337C12.098 2.65337 11.8518 2.65337 11.6274 2.57012C11.5963 2.55856 11.5656 2.54584 11.5353 2.53198C11.3178 2.4322 11.1437 2.25807 10.7954 1.9098C9.99387 1.10822 9.59308 0.707431 9.09992 0.670475C9.03362 0.665506 8.96703 0.665506 8.90072 0.670475C8.40757 0.707431 8.00678 1.10822 7.2052 1.9098C6.85694 2.25807 6.6828 2.4322 6.4653 2.53198C6.43509 2.54584 6.40438 2.55856 6.37322 2.57012C6.14887 2.65337 5.9026 2.65337 5.41008 2.65337H5.31923C4.06264 2.65337 3.43435 2.65337 3.04398 3.04374C2.65361 3.43411 2.65361 4.0624 2.65361 5.31899V5.40984C2.65361 5.90236 2.65361 6.14862 2.57037 6.37297C2.5588 6.40413 2.54608 6.43485 2.53222 6.46506C2.43245 6.68256 2.25831 6.85669 1.91005 7.20496C1.10847 8.00654 0.707675 8.40733 0.670719 8.90048C0.66575 8.96679 0.66575 9.03337 0.670719 9.09968C0.707675 9.59283 1.10847 9.99362 1.91005 10.7952C2.25831 11.1435 2.43245 11.3176 2.53222 11.5351C2.54608 11.5653 2.5588 11.596 2.57037 11.6272C2.65361 11.8515 2.65361 12.0978 2.65361 12.5903V12.6812C2.65361 13.9378 2.65361 14.5661 3.04398 14.9564C3.43435 15.3468 4.06264 15.3468 5.31923 15.3468H5.41008C5.9026 15.3468 6.14887 15.3468 6.37322 15.43C6.40438 15.4416 6.43509 15.4543 6.4653 15.4682C6.6828 15.568 6.85693 15.7421 7.2052 16.0904C8.00678 16.8919 8.40757 17.2927 8.90072 17.3297C8.96703 17.3347 9.03362 17.3347 9.09992 17.3297C9.59308 17.2927 9.99387 16.8919 10.7954 16.0904C11.1437 15.7421 11.3178 15.568 11.5353 15.4682C11.5656 15.4543 11.5963 15.4416 11.6274 15.43C11.8518 15.3468 12.098 15.3468 12.5906 15.3468H12.6814C13.938 15.3468 14.5663 15.3468 14.9567 14.9564C15.347 14.5661 15.347 13.9378 15.347 12.6812V12.5903C15.347 12.0978 15.347 11.8515 15.4303 11.6272C15.4418 11.596 15.4546 11.5653 15.4684 11.5351C15.5682 11.3176 15.7423 11.1435 16.0906 10.7952C16.8922 9.99362 17.293 9.59283 17.3299 9.09968C17.3349 9.03337 17.3349 8.96679 17.3299 8.90048C17.293 8.40733 16.8922 8.00654 16.0906 7.20496C15.7423 6.85669 15.5682 6.68256 15.4684 6.46506C15.4546 6.43485 15.4418 6.40413 15.4303 6.37297C15.347 6.14862 15.347 5.90236 15.347 5.40984V5.31899C15.347 4.0624 15.347 3.43411 14.9567 3.04374C14.5663 2.65337 13.938 2.65337 12.6814 2.65337H12.5906Z" stroke="#534FEB"/>
</g>
</svg>
