<svg width="28" height="28" viewBox="0 0 28 28" fill="none" xmlns="http://www.w3.org/2000/svg">
<circle cx="14" cy="14" r="14" fill="#004368" fill-opacity="0.2"/>
<path d="M14.5998 16.6219C14.5998 16.5439 14.5842 16.4666 14.5541 16.3946C14.524 16.3225 14.4798 16.2571 14.4242 16.2019C14.3685 16.1467 14.3024 16.103 14.2297 16.0732C14.157 16.0433 14.079 16.0279 14.0003 16.0279C13.9216 16.0279 13.8436 16.0433 13.7709 16.0732C13.6982 16.103 13.6321 16.1467 13.5764 16.2019C13.5208 16.2571 13.4766 16.3225 13.4465 16.3946C13.4163 16.4666 13.4008 16.5439 13.4008 16.6219C13.4058 16.7761 13.471 16.9223 13.5829 17.0297C13.6947 17.137 13.8443 17.197 14 17.197C14.1557 17.197 14.3053 17.137 14.4171 17.0297C14.5289 16.9223 14.5942 16.7761 14.5992 16.6219H14.5998ZM14.4437 11.953C14.4282 11.8411 14.3703 11.7391 14.2818 11.6678C14.1933 11.5965 14.0807 11.5612 13.9669 11.569C13.8531 11.5767 13.7465 11.6271 13.6687 11.7097C13.5909 11.7924 13.5477 11.9012 13.5479 12.0143L13.5503 14.6902L13.5545 14.7509C13.57 14.8629 13.6279 14.9648 13.7164 15.0361C13.8049 15.1074 13.9175 15.1427 14.0313 15.135C14.1451 15.1272 14.2517 15.0769 14.3295 14.9942C14.4072 14.9115 14.4505 14.8027 14.4503 14.6897L14.4479 12.0131L14.4437 11.953ZM15.1818 8.69025C14.6676 7.76992 13.3324 7.76992 12.8188 8.69025L8.17075 17.0143C7.67271 17.9061 8.32377 19 9.35286 19H18.6477C19.6762 19 20.3273 17.9061 19.8292 17.0143L15.1812 8.69084L15.1818 8.69025ZM13.6061 9.12188C13.645 9.05211 13.702 8.99395 13.7713 8.95345C13.8406 8.91294 13.9196 8.89158 14 8.89158C14.0804 8.89158 14.1594 8.91294 14.2287 8.95345C14.298 8.99395 14.355 9.05211 14.3939 9.12188L19.042 17.4465C19.0799 17.5144 19.0992 17.591 19.0981 17.6686C19.0971 17.7462 19.0755 17.8221 19.0357 17.889C18.9959 17.9558 18.9391 18.0112 18.8711 18.0496C18.8031 18.0881 18.7261 18.1083 18.6477 18.1082H9.35286C9.27453 18.1083 9.19753 18.0881 9.12949 18.0496C9.06144 18.0112 9.00471 17.9558 8.96489 17.889C8.92507 17.8221 8.90354 17.7462 8.90244 17.6686C8.90135 17.591 8.92071 17.5144 8.95863 17.4465L13.6061 9.12188Z" fill="#004368"/>
</svg>
