<svg width="21" height="20" viewBox="0 0 21 20" fill="none" xmlns="http://www.w3.org/2000/svg">
<g id="task-daily-02">
<path id="Vector" d="M3.25 7.80704C3.25 4.91244 3.25 3.46515 4.10427 2.56592C4.95854 1.66669 6.33348 1.66669 9.08333 1.66669H11.5833C14.3332 1.66669 15.7081 1.66669 16.5624 2.56592C17.4167 3.46515 17.4167 4.91244 17.4167 7.80704V12.193C17.4167 15.0876 17.4167 16.5349 16.5624 17.4341C15.7081 18.3334 14.3332 18.3334 11.5833 18.3334H9.08333C6.33348 18.3334 4.95854 18.3334 4.10427 17.4341C3.25 16.5349 3.25 15.0876 3.25 12.193V7.80704Z" stroke="#537B92" stroke-width="1.5" stroke-linecap="round" stroke-linejoin="round"/>
<path id="Vector_2" d="M11.583 9.16669H14.4997" stroke="#537B92" stroke-width="1.5" stroke-linecap="round"/>
<path id="Vector_3" d="M6.16602 9.99998C6.16602 9.99998 6.58268 9.99998 6.99935 10.8333C6.99935 10.8333 8.32288 8.74998 9.49935 8.33331" stroke="#537B92" stroke-width="1.5" stroke-linecap="round" stroke-linejoin="round"/>
<path id="Vector_4" d="M11.583 14.1667H14.4997" stroke="#537B92" stroke-width="1.5" stroke-linecap="round"/>
<path id="Vector_5" d="M7 1.66669L7.0685 2.07769C7.23478 3.07539 7.31793 3.57424 7.66761 3.87046C8.01729 4.16669 8.52302 4.16669 9.5345 4.16669H11.1322C12.1437 4.16669 12.6494 4.16669 12.9991 3.87046C13.3488 3.57424 13.4319 3.07539 13.5982 2.07769L13.6667 1.66669" stroke="#537B92" stroke-width="1.5" stroke-linecap="round" stroke-linejoin="round"/>
<path id="Vector_6" d="M7 14.1667H7.83333" stroke="#537B92" stroke-width="2" stroke-linecap="round" stroke-linejoin="round"/>
</g>
</svg>
