<svg width="21" height="20" viewBox="0 0 21 20" fill="none" xmlns="http://www.w3.org/2000/svg">
<g id="task-daily-02">
<path id="Vector" d="M3.25 7.80698C3.25 4.91238 3.25 3.46509 4.10427 2.56586C4.95854 1.66663 6.33348 1.66663 9.08333 1.66663H11.5833C14.3332 1.66663 15.7081 1.66663 16.5624 2.56586C17.4167 3.46509 17.4167 4.91238 17.4167 7.80698V12.193C17.4167 15.0875 17.4167 16.5348 16.5624 17.434C15.7081 18.3333 14.3332 18.3333 11.5833 18.3333H9.08333C6.33348 18.3333 4.95854 18.3333 4.10427 17.434C3.25 16.5348 3.25 15.0875 3.25 12.193V7.80698Z" stroke="#537B92" stroke-width="1.5" stroke-linecap="round" stroke-linejoin="round"/>
<path id="Vector_2" d="M11.583 9.16663H14.4997" stroke="#537B92" stroke-width="1.5" stroke-linecap="round"/>
<path id="Vector_3" d="M6.16602 10C6.16602 10 6.58268 10 6.99935 10.8334C6.99935 10.8334 8.32288 8.75004 9.49935 8.33337" stroke="#537B92" stroke-width="1.5" stroke-linecap="round" stroke-linejoin="round"/>
<path id="Vector_4" d="M11.583 14.1666H14.4997" stroke="#537B92" stroke-width="1.5" stroke-linecap="round"/>
<path id="Vector_5" d="M7 1.66663L7.0685 2.07763C7.23478 3.07533 7.31793 3.57418 7.66761 3.8704C8.01729 4.16663 8.52302 4.16663 9.5345 4.16663H11.1322C12.1437 4.16663 12.6494 4.16663 12.9991 3.8704C13.3488 3.57418 13.4319 3.07533 13.5982 2.07763L13.6667 1.66663" stroke="#537B92" stroke-width="1.5" stroke-linecap="round" stroke-linejoin="round"/>
<path id="Vector_6" d="M7 14.1666H7.83333" stroke="#537B92" stroke-width="2" stroke-linecap="round" stroke-linejoin="round"/>
</g>
</svg>
