<svg width="21" height="20" viewBox="0 0 21 20" fill="none" xmlns="http://www.w3.org/2000/svg">
<g id="task-daily-02">
<path id="Vector" d="M3.41699 7.80698C3.41699 4.91238 3.41699 3.46509 4.27127 2.56586C5.12553 1.66663 6.50047 1.66663 9.25033 1.66663H11.7503C14.5002 1.66663 15.8751 1.66663 16.7294 2.56586C17.5837 3.46509 17.5837 4.91238 17.5837 7.80698V12.193C17.5837 15.0875 17.5837 16.5348 16.7294 17.434C15.8751 18.3333 14.5002 18.3333 11.7503 18.3333H9.25033C6.50047 18.3333 5.12553 18.3333 4.27127 17.434C3.41699 16.5348 3.41699 15.0875 3.41699 12.193V7.80698Z" stroke="#1B1B1B" stroke-width="1.5" stroke-linecap="round" stroke-linejoin="round"/>
<path id="Vector_2" d="M11.75 9.16663H14.6667" stroke="#1B1B1B" stroke-width="1.5" stroke-linecap="round"/>
<path id="Vector_3" d="M6.33301 10C6.33301 10 6.74967 10 7.16634 10.8334C7.16634 10.8334 8.48987 8.75004 9.66634 8.33337" stroke="#1B1B1B" stroke-width="1.5" stroke-linecap="round" stroke-linejoin="round"/>
<path id="Vector_4" d="M11.75 14.1666H14.6667" stroke="#1B1B1B" stroke-width="1.5" stroke-linecap="round"/>
<path id="Vector_5" d="M7.16699 1.66663L7.23549 2.07763C7.40178 3.07533 7.48492 3.57418 7.8346 3.8704C8.18428 4.16663 8.69001 4.16663 9.70149 4.16663H11.2992C12.3107 4.16663 12.8164 4.16663 13.1661 3.8704C13.5157 3.57418 13.5989 3.07533 13.7652 2.07763L13.8337 1.66663" stroke="#1B1B1B" stroke-width="1.5" stroke-linecap="round" stroke-linejoin="round"/>
<path id="Vector_6" d="M7.16699 14.1666H8.00033" stroke="#1B1B1B" stroke-width="2" stroke-linecap="round" stroke-linejoin="round"/>
</g>
</svg>
