<svg width="40" height="40" viewBox="0 0 40 40" fill="none" xmlns="http://www.w3.org/2000/svg">
<g id="tabler:device-landline-phone">
<g id="Group">
<path id="Vector" d="M26.6663 6.66667H8.33301C7.00693 6.66667 5.73516 7.19345 4.79747 8.13113C3.85979 9.06881 3.33301 10.3406 3.33301 11.6667V28.3333C3.33301 29.6594 3.85979 30.9312 4.79747 31.8689C5.73516 32.8065 7.00693 33.3333 8.33301 33.3333H26.6663M33.333 5H29.9997C29.1156 5 28.2678 5.35119 27.6427 5.97631C27.0175 6.60143 26.6663 7.44928 26.6663 8.33333V31.6667C26.6663 32.5507 27.0175 33.3986 27.6427 34.0237C28.2678 34.6488 29.1156 35 29.9997 35H33.333C34.2171 35 35.0649 34.6488 35.69 34.0237C36.3152 33.3986 36.6663 32.5507 36.6663 31.6667V8.33333C36.6663 7.44928 36.3152 6.60143 35.69 5.97631C35.0649 5.35119 34.2171 5 33.333 5Z" stroke="#004368" stroke-width="2" stroke-linecap="round" stroke-linejoin="round"/>
<path id="Vector_2" d="M20 23.333V23.3497M15 23.333V23.3497M10 23.333V23.3497M20 28.333V28.3497M15 28.333V28.3497M10 28.333V28.3497M20 13.333H10V18.333H20V13.333Z" stroke="#004368" stroke-width="2" stroke-linecap="round" stroke-linejoin="round"/>
</g>
</g>
</svg>
