<svg width="20" height="20" viewBox="0 0 20 20" fill="none" xmlns="http://www.w3.org/2000/svg">
<g id="touchpad-04">
<path id="Vector" d="M18.3337 11.3158V11.4521M18.3337 11.4521C18.3337 10.766 17.8339 10.1805 17.152 10.0677L16.2124 9.91225V10.614M18.3337 11.4521V13.1872C18.3337 14.7123 18.3337 15.4749 18.0996 16.082C17.7417 17.0103 17.0048 17.7439 16.0724 18.1003C15.4626 18.3333 14.6967 18.3333 13.1647 18.3333C12.3613 18.3333 11.9597 18.3333 11.5858 18.2515C11.0154 18.1267 10.4852 17.8627 10.0427 17.4833C9.75266 17.2347 9.51158 16.9148 9.02958 16.2748L6.90554 13.4552C6.57918 13.022 6.58856 12.4238 6.92836 12.0009C7.37245 11.4482 8.20047 11.4026 8.70316 11.9031L9.77808 13.0437V6.17647C9.77808 5.52672 10.3004 5 10.9447 5C11.5891 5 12.1114 5.52672 12.1114 6.17647V8.50875M16.2124 10.614C16.2124 9.83892 15.5793 9.2105 14.7983 9.2105H14.0912V9.91225M16.2124 10.614V11.3158M12.1114 8.50875H12.6771C13.4581 8.50875 14.0912 9.13717 14.0912 9.91225M12.1114 8.50875V10.614M14.0912 9.91225V10.614" stroke="#D6E6F0" stroke-width="1.5" stroke-linecap="round" stroke-linejoin="round"/>
<path id="Vector_2" d="M18.3337 6.67519C18.3037 4.60539 18.1504 3.43194 17.3642 2.64471C16.3874 1.66675 14.8154 1.66675 11.6713 1.66675H8.33658C5.19249 1.66675 3.62046 1.66675 2.64373 2.64471C1.66699 3.62266 1.66699 5.19666 1.66699 8.34466V10.0142C1.66699 11.5699 1.66699 12.3477 1.92083 12.9614C2.2593 13.7795 2.90849 14.4295 3.72561 14.7684C4.06531 14.9093 4.45543 14.9721 5.00033 15.0001" stroke="#D6E6F0" stroke-width="1.5" stroke-linecap="round"/>
</g>
</svg>
