<svg width="16" height="17" viewBox="0 0 16 17" fill="none" xmlns="http://www.w3.org/2000/svg">
<g id="work-history">
<path id="Vector" d="M7.33734 14.5001H6.40331C4.01315 14.5001 2.81807 14.5001 2.07553 13.7434C1.33301 12.9868 1.33301 11.769 1.33301 9.33341C1.33301 6.89782 1.33301 5.68003 2.07553 4.92339C2.81807 4.16675 4.01315 4.16675 6.40331 4.16675H8.93847C11.3286 4.16675 12.5237 4.16675 13.2663 4.92339C13.8375 5.50554 13.9693 6.36068 13.9997 7.83341" stroke="#004368" stroke-linecap="round" stroke-linejoin="round"/>
<path id="Vector_2" d="M12.567 13.0667L11.667 12.4667V10.9667M8.66699 12.1667C8.66699 13.8236 10.0101 15.1667 11.667 15.1667C13.3239 15.1667 14.667 13.8236 14.667 12.1667C14.667 10.5099 13.3239 9.16675 11.667 9.16675C10.0101 9.16675 8.66699 10.5099 8.66699 12.1667Z" stroke="#004368" stroke-linecap="round" stroke-linejoin="round"/>
<path id="Vector_3" d="M10.667 4.16659L10.6008 3.96055C10.2707 2.93385 10.1057 2.4205 9.71293 2.12687C9.32006 1.83325 8.79833 1.83325 7.75473 1.83325H7.57926C6.53569 1.83325 6.0139 1.83325 5.62107 2.12687C5.22823 2.4205 5.06323 2.93385 4.73322 3.96055L4.66699 4.16659" stroke="#004368" stroke-linecap="round" stroke-linejoin="round"/>
</g>
</svg>
